<svg width="20" height="21" viewBox="0 0 20 21" fill="none" xmlns="http://www.w3.org/2000/svg">
<g clip-path="url(#clip0_610_590)">
<path d="M-223.076 9.71V11.006C-222.788 10.97 -222.482 10.952 -222.158 10.952C-221.774 10.952 -221.42 11.006 -221.096 11.114C-220.76 11.21 -220.472 11.366 -220.232 11.582C-219.992 11.786 -219.8 12.044 -219.656 12.356C-219.512 12.656 -219.44 13.004 -219.44 13.4C-219.44 13.784 -219.518 14.132 -219.674 14.444C-219.818 14.744 -220.016 15.002 -220.268 15.218C-220.52 15.422 -220.814 15.584 -221.15 15.704C-221.486 15.812 -221.84 15.866 -222.212 15.866C-223.088 15.866 -223.754 15.608 -224.21 15.092C-224.666 14.564 -224.906 13.886 -224.93 13.058H-226.46C-226.472 13.718 -226.382 14.306 -226.19 14.822C-225.986 15.338 -225.698 15.776 -225.326 16.136C-224.954 16.484 -224.504 16.748 -223.976 16.928C-223.448 17.108 -222.86 17.198 -222.212 17.198C-221.612 17.198 -221.048 17.12 -220.52 16.964C-219.98 16.796 -219.512 16.55 -219.116 16.226C-218.72 15.902 -218.408 15.5 -218.18 15.02C-217.94 14.528 -217.82 13.964 -217.82 13.328C-217.82 12.56 -218.012 11.894 -218.396 11.33C-218.768 10.766 -219.344 10.4 -220.124 10.232V10.196C-219.62 9.968 -219.2 9.632 -218.864 9.188C-218.528 8.744 -218.36 8.234 -218.36 7.658C-218.36 7.07 -218.462 6.56 -218.666 6.128C-218.858 5.696 -219.128 5.342 -219.476 5.066C-219.824 4.79 -220.238 4.586 -220.718 4.454C-221.186 4.31 -221.696 4.238 -222.248 4.238C-222.884 4.238 -223.448 4.34 -223.94 4.544C-224.42 4.748 -224.822 5.03 -225.146 5.39C-225.47 5.75 -225.722 6.182 -225.902 6.686C-226.07 7.19 -226.166 7.748 -226.19 8.36H-224.66C-224.66 7.988 -224.612 7.634 -224.516 7.298C-224.42 6.962 -224.276 6.668 -224.084 6.416C-223.88 6.164 -223.628 5.966 -223.328 5.822C-223.016 5.666 -222.656 5.588 -222.248 5.588C-221.6 5.588 -221.06 5.762 -220.628 6.11C-220.196 6.446 -219.98 6.956 -219.98 7.64C-219.98 7.976 -220.046 8.276 -220.178 8.54C-220.31 8.804 -220.49 9.026 -220.718 9.206C-220.934 9.374 -221.192 9.506 -221.492 9.602C-221.78 9.686 -222.086 9.728 -222.41 9.728H-222.734C-222.794 9.728 -222.854 9.728 -222.914 9.728C-222.962 9.728 -223.016 9.722 -223.076 9.71ZM-215.504 15.002V17H-213.506V15.002H-215.504ZM-202.659 5.588V17H-200.949V5.588H-196.665V4.148H-206.943V5.588H-202.659ZM-189.25 16.964C-189.514 17.12 -189.88 17.198 -190.348 17.198C-190.744 17.198 -191.062 17.09 -191.302 16.874C-191.53 16.646 -191.644 16.28 -191.644 15.776C-192.064 16.28 -192.556 16.646 -193.12 16.874C-193.672 17.09 -194.272 17.198 -194.92 17.198C-195.34 17.198 -195.742 17.15 -196.126 17.054C-196.498 16.958 -196.822 16.808 -197.098 16.604C-197.374 16.4 -197.596 16.136 -197.764 15.812C-197.92 15.476 -197.998 15.074 -197.998 14.606C-197.998 14.078 -197.908 13.646 -197.728 13.31C-197.548 12.974 -197.314 12.704 -197.026 12.5C-196.726 12.284 -196.39 12.122 -196.018 12.014C-195.634 11.906 -195.244 11.816 -194.848 11.744C-194.428 11.66 -194.032 11.6 -193.66 11.564C-193.276 11.516 -192.94 11.456 -192.652 11.384C-192.364 11.3 -192.136 11.186 -191.968 11.042C-191.8 10.886 -191.716 10.664 -191.716 10.376C-191.716 10.04 -191.782 9.77 -191.914 9.566C-192.034 9.362 -192.196 9.206 -192.4 9.098C-192.592 8.99 -192.814 8.918 -193.066 8.882C-193.306 8.846 -193.546 8.828 -193.786 8.828C-194.434 8.828 -194.974 8.954 -195.406 9.206C-195.838 9.446 -196.072 9.908 -196.108 10.592H-197.638C-197.614 10.016 -197.494 9.53 -197.278 9.134C-197.062 8.738 -196.774 8.42 -196.414 8.18C-196.054 7.928 -195.646 7.748 -195.19 7.64C-194.722 7.532 -194.224 7.478 -193.696 7.478C-193.276 7.478 -192.862 7.508 -192.454 7.568C-192.034 7.628 -191.656 7.754 -191.32 7.946C-190.984 8.126 -190.714 8.384 -190.51 8.72C-190.306 9.056 -190.204 9.494 -190.204 10.034V14.822C-190.204 15.182 -190.186 15.446 -190.15 15.614C-190.102 15.782 -189.958 15.866 -189.718 15.866C-189.586 15.866 -189.43 15.836 -189.25 15.776V16.964ZM-191.734 12.194C-191.926 12.338 -192.178 12.446 -192.49 12.518C-192.802 12.578 -193.132 12.632 -193.48 12.68C-193.816 12.716 -194.158 12.764 -194.506 12.824C-194.854 12.872 -195.166 12.956 -195.442 13.076C-195.718 13.196 -195.946 13.37 -196.126 13.598C-196.294 13.814 -196.378 14.114 -196.378 14.498C-196.378 14.75 -196.33 14.966 -196.234 15.146C-196.126 15.314 -195.994 15.452 -195.838 15.56C-195.67 15.668 -195.478 15.746 -195.262 15.794C-195.046 15.842 -194.818 15.866 -194.578 15.866C-194.074 15.866 -193.642 15.8 -193.282 15.668C-192.922 15.524 -192.628 15.35 -192.4 15.146C-192.172 14.93 -192.004 14.702 -191.896 14.462C-191.788 14.21 -191.734 13.976 -191.734 13.76V12.194ZM-187.773 7.694V20.546H-186.243V15.758H-186.207C-186.039 16.034 -185.835 16.268 -185.595 16.46C-185.343 16.64 -185.079 16.784 -184.803 16.892C-184.527 17 -184.251 17.078 -183.975 17.126C-183.687 17.174 -183.429 17.198 -183.201 17.198C-182.493 17.198 -181.875 17.072 -181.347 16.82C-180.807 16.568 -180.363 16.226 -180.015 15.794C-179.655 15.35 -179.391 14.834 -179.223 14.246C-179.043 13.658 -178.953 13.034 -178.953 12.374C-178.953 11.714 -179.043 11.09 -179.223 10.502C-179.403 9.914 -179.673 9.398 -180.033 8.954C-180.381 8.498 -180.825 8.138 -181.365 7.874C-181.893 7.61 -182.517 7.478 -183.237 7.478C-183.885 7.478 -184.479 7.598 -185.019 7.838C-185.559 8.066 -185.955 8.438 -186.207 8.954H-186.243V7.694H-187.773ZM-180.573 12.266C-180.573 12.722 -180.621 13.166 -180.717 13.598C-180.813 14.03 -180.969 14.414 -181.185 14.75C-181.401 15.086 -181.689 15.356 -182.049 15.56C-182.397 15.764 -182.835 15.866 -183.363 15.866C-183.891 15.866 -184.341 15.77 -184.713 15.578C-185.085 15.374 -185.391 15.11 -185.631 14.786C-185.859 14.462 -186.027 14.09 -186.135 13.67C-186.243 13.238 -186.297 12.794 -186.297 12.338C-186.297 11.906 -186.249 11.48 -186.153 11.06C-186.045 10.64 -185.877 10.268 -185.649 9.944C-185.421 9.608 -185.127 9.338 -184.767 9.134C-184.407 8.93 -183.969 8.828 -183.453 8.828C-182.961 8.828 -182.535 8.924 -182.175 9.116C-181.803 9.308 -181.503 9.566 -181.275 9.89C-181.035 10.214 -180.861 10.586 -180.753 11.006C-180.633 11.414 -180.573 11.834 -180.573 12.266ZM-169.681 11.69L-167.503 5.696H-167.467L-165.325 11.69H-169.681ZM-168.403 4.148L-173.407 17H-171.661L-170.221 13.13H-164.785L-163.381 17H-161.491L-166.513 4.148H-168.403ZM-159.359 12.428C-159.359 11.972 -159.311 11.528 -159.215 11.096C-159.119 10.664 -158.963 10.28 -158.747 9.944C-158.531 9.608 -158.243 9.338 -157.883 9.134C-157.523 8.93 -157.085 8.828 -156.569 8.828C-156.041 8.828 -155.591 8.93 -155.219 9.134C-154.847 9.326 -154.547 9.584 -154.319 9.908C-154.079 10.232 -153.905 10.61 -153.797 11.042C-153.689 11.462 -153.635 11.9 -153.635 12.356C-153.635 12.788 -153.689 13.214 -153.797 13.634C-153.893 14.054 -154.055 14.432 -154.283 14.768C-154.511 15.092 -154.805 15.356 -155.165 15.56C-155.525 15.764 -155.963 15.866 -156.479 15.866C-156.971 15.866 -157.403 15.77 -157.775 15.578C-158.135 15.386 -158.435 15.128 -158.675 14.804C-158.903 14.48 -159.077 14.114 -159.197 13.706C-159.305 13.286 -159.359 12.86 -159.359 12.428ZM-152.159 17V4.148H-153.689V8.936H-153.725C-153.893 8.66 -154.103 8.432 -154.355 8.252C-154.595 8.06 -154.853 7.91 -155.129 7.802C-155.405 7.682 -155.681 7.598 -155.957 7.55C-156.233 7.502 -156.491 7.478 -156.731 7.478C-157.439 7.478 -158.063 7.61 -158.603 7.874C-159.131 8.126 -159.575 8.474 -159.935 8.918C-160.283 9.35 -160.547 9.86 -160.727 10.448C-160.895 11.036 -160.979 11.66 -160.979 12.32C-160.979 12.98 -160.889 13.604 -160.709 14.192C-160.529 14.78 -160.265 15.296 -159.917 15.74C-159.557 16.184 -159.113 16.538 -158.585 16.802C-158.045 17.066 -157.415 17.198 -156.695 17.198C-156.047 17.198 -155.453 17.084 -154.913 16.856C-154.373 16.628 -153.977 16.256 -153.725 15.74H-153.689V17H-152.159ZM-148.689 12.428C-148.689 11.972 -148.641 11.528 -148.545 11.096C-148.449 10.664 -148.293 10.28 -148.077 9.944C-147.861 9.608 -147.573 9.338 -147.213 9.134C-146.853 8.93 -146.415 8.828 -145.899 8.828C-145.371 8.828 -144.921 8.93 -144.549 9.134C-144.177 9.326 -143.877 9.584 -143.649 9.908C-143.409 10.232 -143.235 10.61 -143.127 11.042C-143.019 11.462 -142.965 11.9 -142.965 12.356C-142.965 12.788 -143.019 13.214 -143.127 13.634C-143.223 14.054 -143.385 14.432 -143.613 14.768C-143.841 15.092 -144.135 15.356 -144.495 15.56C-144.855 15.764 -145.293 15.866 -145.809 15.866C-146.301 15.866 -146.733 15.77 -147.105 15.578C-147.465 15.386 -147.765 15.128 -148.005 14.804C-148.233 14.48 -148.407 14.114 -148.527 13.706C-148.635 13.286 -148.689 12.86 -148.689 12.428ZM-141.489 17V4.148H-143.019V8.936H-143.055C-143.223 8.66 -143.433 8.432 -143.685 8.252C-143.925 8.06 -144.183 7.91 -144.459 7.802C-144.735 7.682 -145.011 7.598 -145.287 7.55C-145.563 7.502 -145.821 7.478 -146.061 7.478C-146.769 7.478 -147.393 7.61 -147.933 7.874C-148.461 8.126 -148.905 8.474 -149.265 8.918C-149.613 9.35 -149.877 9.86 -150.057 10.448C-150.225 11.036 -150.309 11.66 -150.309 12.32C-150.309 12.98 -150.219 13.604 -150.039 14.192C-149.859 14.78 -149.595 15.296 -149.247 15.74C-148.887 16.184 -148.443 16.538 -147.915 16.802C-147.375 17.066 -146.745 17.198 -146.025 17.198C-145.377 17.198 -144.783 17.084 -144.243 16.856C-143.703 16.628 -143.307 16.256 -143.055 15.74H-143.019V17H-141.489ZM-132.001 7.694V4.904H-133.531V7.694H-135.115V9.044H-133.531V14.966C-133.531 15.398 -133.489 15.746 -133.405 16.01C-133.321 16.274 -133.195 16.478 -133.027 16.622C-132.847 16.766 -132.619 16.868 -132.343 16.928C-132.055 16.976 -131.713 17 -131.317 17H-130.147V15.65H-130.849C-131.089 15.65 -131.287 15.644 -131.443 15.632C-131.587 15.608 -131.701 15.566 -131.785 15.506C-131.869 15.446 -131.929 15.362 -131.965 15.254C-131.989 15.146 -132.001 15.002 -132.001 14.822V9.044H-130.147V7.694H-132.001ZM-127.332 12.356C-127.332 11.792 -127.26 11.294 -127.116 10.862C-126.96 10.418 -126.75 10.046 -126.486 9.746C-126.222 9.446 -125.916 9.218 -125.568 9.062C-125.208 8.906 -124.83 8.828 -124.434 8.828C-124.038 8.828 -123.666 8.906 -123.318 9.062C-122.958 9.218 -122.646 9.446 -122.382 9.746C-122.118 10.046 -121.914 10.418 -121.77 10.862C-121.614 11.294 -121.536 11.792 -121.536 12.356C-121.536 12.92 -121.614 13.424 -121.77 13.868C-121.914 14.3 -122.118 14.666 -122.382 14.966C-122.646 15.254 -122.958 15.476 -123.318 15.632C-123.666 15.788 -124.038 15.866 -124.434 15.866C-124.83 15.866 -125.208 15.788 -125.568 15.632C-125.916 15.476 -126.222 15.254 -126.486 14.966C-126.75 14.666 -126.96 14.3 -127.116 13.868C-127.26 13.424 -127.332 12.92 -127.332 12.356ZM-128.952 12.356C-128.952 13.04 -128.856 13.676 -128.664 14.264C-128.472 14.852 -128.184 15.368 -127.8 15.812C-127.416 16.244 -126.942 16.586 -126.378 16.838C-125.814 17.078 -125.166 17.198 -124.434 17.198C-123.69 17.198 -123.042 17.078 -122.49 16.838C-121.926 16.586 -121.452 16.244 -121.068 15.812C-120.684 15.368 -120.396 14.852 -120.204 14.264C-120.012 13.676 -119.916 13.04 -119.916 12.356C-119.916 11.672 -120.012 11.036 -120.204 10.448C-120.396 9.848 -120.684 9.332 -121.068 8.9C-121.452 8.456 -121.926 8.108 -122.49 7.856C-123.042 7.604 -123.69 7.478 -124.434 7.478C-125.166 7.478 -125.814 7.604 -126.378 7.856C-126.942 8.108 -127.416 8.456 -127.8 8.9C-128.184 9.332 -128.472 9.848 -128.664 10.448C-128.856 11.036 -128.952 11.672 -128.952 12.356ZM-112.85 4.148V17H-111.14V11.114H-104.372V17H-102.662V4.148H-104.372V9.674H-111.14V4.148H-112.85ZM-98.9957 12.356C-98.9957 11.792 -98.9237 11.294 -98.7797 10.862C-98.6237 10.418 -98.4137 10.046 -98.1497 9.746C-97.8857 9.446 -97.5797 9.218 -97.2317 9.062C-96.8717 8.906 -96.4937 8.828 -96.0977 8.828C-95.7017 8.828 -95.3297 8.906 -94.9817 9.062C-94.6217 9.218 -94.3097 9.446 -94.0457 9.746C-93.7817 10.046 -93.5777 10.418 -93.4337 10.862C-93.2777 11.294 -93.1997 11.792 -93.1997 12.356C-93.1997 12.92 -93.2777 13.424 -93.4337 13.868C-93.5777 14.3 -93.7817 14.666 -94.0457 14.966C-94.3097 15.254 -94.6217 15.476 -94.9817 15.632C-95.3297 15.788 -95.7017 15.866 -96.0977 15.866C-96.4937 15.866 -96.8717 15.788 -97.2317 15.632C-97.5797 15.476 -97.8857 15.254 -98.1497 14.966C-98.4137 14.666 -98.6237 14.3 -98.7797 13.868C-98.9237 13.424 -98.9957 12.92 -98.9957 12.356ZM-100.616 12.356C-100.616 13.04 -100.52 13.676 -100.328 14.264C-100.136 14.852 -99.8477 15.368 -99.4637 15.812C-99.0797 16.244 -98.6057 16.586 -98.0417 16.838C-97.4777 17.078 -96.8297 17.198 -96.0977 17.198C-95.3537 17.198 -94.7057 17.078 -94.1537 16.838C-93.5897 16.586 -93.1157 16.244 -92.7317 15.812C-92.3477 15.368 -92.0597 14.852 -91.8677 14.264C-91.6757 13.676 -91.5797 13.04 -91.5797 12.356C-91.5797 11.672 -91.6757 11.036 -91.8677 10.448C-92.0597 9.848 -92.3477 9.332 -92.7317 8.9C-93.1157 8.456 -93.5897 8.108 -94.1537 7.856C-94.7057 7.604 -95.3537 7.478 -96.0977 7.478C-96.8297 7.478 -97.4777 7.604 -98.0417 7.856C-98.6057 8.108 -99.0797 8.456 -99.4637 8.9C-99.8477 9.332 -100.136 9.848 -100.328 10.448C-100.52 11.036 -100.616 11.672 -100.616 12.356ZM-89.7757 7.694V17H-88.2457V11.204C-88.2457 11.024 -88.2037 10.802 -88.1197 10.538C-88.0237 10.262 -87.8797 9.998 -87.6877 9.746C-87.4837 9.494 -87.2257 9.278 -86.9137 9.098C-86.5897 8.918 -86.2057 8.828 -85.7617 8.828C-85.4137 8.828 -85.1317 8.882 -84.9157 8.99C-84.6877 9.086 -84.5077 9.23 -84.3757 9.422C-84.2437 9.602 -84.1537 9.818 -84.1057 10.07C-84.0457 10.322 -84.0157 10.598 -84.0157 10.898V17H-82.4857V11.204C-82.4857 10.484 -82.2697 9.908 -81.8377 9.476C-81.4057 9.044 -80.8117 8.828 -80.0557 8.828C-79.6837 8.828 -79.3837 8.882 -79.1557 8.99C-78.9157 9.098 -78.7297 9.248 -78.5977 9.44C-78.4657 9.62 -78.3757 9.836 -78.3277 10.088C-78.2797 10.34 -78.2557 10.61 -78.2557 10.898V17H-76.7257V10.178C-76.7257 9.698 -76.8037 9.29 -76.9597 8.954C-77.1037 8.606 -77.3137 8.324 -77.5897 8.108C-77.8537 7.892 -78.1777 7.736 -78.5617 7.64C-78.9337 7.532 -79.3537 7.478 -79.8217 7.478C-80.4337 7.478 -80.9977 7.616 -81.5137 7.892C-82.0177 8.168 -82.4257 8.558 -82.7377 9.062C-82.9297 8.486 -83.2597 8.078 -83.7277 7.838C-84.1957 7.598 -84.7177 7.478 -85.2937 7.478C-86.6017 7.478 -87.6037 8.006 -88.2997 9.062H-88.3357V7.694H-89.7757ZM-67.968 11.456H-73.314C-73.29 11.096 -73.212 10.76 -73.08 10.448C-72.948 10.124 -72.768 9.842 -72.54 9.602C-72.312 9.362 -72.042 9.176 -71.73 9.044C-71.406 8.9 -71.046 8.828 -70.65 8.828C-70.266 8.828 -69.918 8.9 -69.606 9.044C-69.282 9.176 -69.006 9.362 -68.778 9.602C-68.538 9.83 -68.352 10.106 -68.22 10.43C-68.076 10.754 -67.992 11.096 -67.968 11.456ZM-66.492 14.048H-68.004C-68.136 14.66 -68.412 15.116 -68.832 15.416C-69.24 15.716 -69.768 15.866 -70.416 15.866C-70.92 15.866 -71.358 15.782 -71.73 15.614C-72.102 15.446 -72.408 15.224 -72.648 14.948C-72.888 14.66 -73.062 14.336 -73.17 13.976C-73.278 13.604 -73.326 13.214 -73.314 12.806H-66.348C-66.324 12.242 -66.378 11.648 -66.51 11.024C-66.63 10.4 -66.858 9.824 -67.194 9.296C-67.518 8.768 -67.956 8.336 -68.508 8C-69.048 7.652 -69.732 7.478 -70.56 7.478C-71.196 7.478 -71.784 7.598 -72.324 7.838C-72.852 8.078 -73.314 8.414 -73.71 8.846C-74.094 9.278 -74.394 9.788 -74.61 10.376C-74.826 10.964 -74.934 11.612 -74.934 12.32C-74.91 13.028 -74.808 13.682 -74.628 14.282C-74.436 14.882 -74.154 15.398 -73.782 15.83C-73.41 16.262 -72.954 16.598 -72.414 16.838C-71.862 17.078 -71.214 17.198 -70.47 17.198C-69.414 17.198 -68.538 16.934 -67.842 16.406C-67.146 15.878 -66.696 15.092 -66.492 14.048ZM-52.0663 7.91H-50.4463C-50.4703 7.202 -50.6083 6.596 -50.8603 6.092C-51.1003 5.576 -51.4363 5.15 -51.8683 4.814C-52.2883 4.478 -52.7803 4.232 -53.3443 4.076C-53.9083 3.92 -54.5203 3.842 -55.1803 3.842C-55.7683 3.842 -56.3443 3.92 -56.9083 4.076C-57.4603 4.22 -57.9583 4.448 -58.4023 4.76C-58.8343 5.06 -59.1823 5.45 -59.4463 5.93C-59.7103 6.398 -59.8423 6.956 -59.8423 7.604C-59.8423 8.192 -59.7283 8.684 -59.5003 9.08C-59.2603 9.464 -58.9483 9.782 -58.5643 10.034C-58.1683 10.274 -57.7243 10.472 -57.2323 10.628C-56.7403 10.772 -56.2423 10.904 -55.7383 11.024C-55.2223 11.132 -54.7183 11.24 -54.2263 11.348C-53.7343 11.456 -53.2963 11.6 -52.9123 11.78C-52.5163 11.948 -52.2043 12.17 -51.9763 12.446C-51.7363 12.722 -51.6163 13.082 -51.6163 13.526C-51.6163 13.994 -51.7123 14.378 -51.9043 14.678C-52.0963 14.978 -52.3483 15.218 -52.6603 15.398C-52.9723 15.566 -53.3263 15.686 -53.7223 15.758C-54.1063 15.83 -54.4903 15.866 -54.8743 15.866C-55.3543 15.866 -55.8223 15.806 -56.2783 15.686C-56.7343 15.566 -57.1363 15.38 -57.4843 15.128C-57.8203 14.876 -58.0963 14.558 -58.3123 14.174C-58.5163 13.778 -58.6183 13.31 -58.6183 12.77H-60.2383C-60.2383 13.55 -60.1003 14.228 -59.8243 14.804C-59.5363 15.368 -59.1523 15.836 -58.6723 16.208C-58.1803 16.568 -57.6163 16.838 -56.9803 17.018C-56.3323 17.198 -55.6483 17.288 -54.9283 17.288C-54.3403 17.288 -53.7523 17.216 -53.1643 17.072C-52.5643 16.94 -52.0243 16.724 -51.5443 16.424C-51.0643 16.112 -50.6743 15.716 -50.3743 15.236C-50.0623 14.744 -49.9063 14.156 -49.9063 13.472C-49.9063 12.836 -50.0263 12.308 -50.2663 11.888C-50.4943 11.468 -50.8063 11.12 -51.2023 10.844C-51.5863 10.568 -52.0243 10.352 -52.5163 10.196C-53.0083 10.028 -53.5123 9.884 -54.0283 9.764C-54.5323 9.644 -55.0303 9.536 -55.5223 9.44C-56.0143 9.332 -56.4583 9.2 -56.8543 9.044C-57.2383 8.888 -57.5503 8.69 -57.7903 8.45C-58.0183 8.198 -58.1323 7.874 -58.1323 7.478C-58.1323 7.058 -58.0543 6.71 -57.8983 6.434C-57.7303 6.146 -57.5143 5.918 -57.2503 5.75C-56.9743 5.582 -56.6623 5.462 -56.3143 5.39C-55.9663 5.318 -55.6123 5.282 -55.2523 5.282C-54.3643 5.282 -53.6383 5.492 -53.0743 5.912C-52.4983 6.32 -52.1623 6.986 -52.0663 7.91ZM-41.7624 10.682H-40.1784C-40.2384 10.13 -40.3824 9.656 -40.6104 9.26C-40.8384 8.852 -41.1324 8.516 -41.4924 8.252C-41.8404 7.988 -42.2484 7.796 -42.7164 7.676C-43.1724 7.544 -43.6644 7.478 -44.1924 7.478C-44.9244 7.478 -45.5664 7.61 -46.1184 7.874C-46.6704 8.126 -47.1324 8.48 -47.5044 8.936C-47.8644 9.38 -48.1344 9.908 -48.3144 10.52C-48.4944 11.12 -48.5844 11.768 -48.5844 12.464C-48.5844 13.16 -48.4944 13.802 -48.3144 14.39C-48.1224 14.966 -47.8464 15.464 -47.4864 15.884C-47.1144 16.304 -46.6584 16.628 -46.1184 16.856C-45.5664 17.084 -44.9364 17.198 -44.2284 17.198C-43.0404 17.198 -42.1044 16.886 -41.4204 16.262C-40.7244 15.638 -40.2924 14.75 -40.1244 13.598H-41.6904C-41.7864 14.318 -42.0504 14.876 -42.4824 15.272C-42.9024 15.668 -43.4904 15.866 -44.2464 15.866C-44.7264 15.866 -45.1404 15.77 -45.4884 15.578C-45.8364 15.386 -46.1184 15.134 -46.3344 14.822C-46.5504 14.498 -46.7124 14.132 -46.8204 13.724C-46.9164 13.316 -46.9644 12.896 -46.9644 12.464C-46.9644 11.996 -46.9164 11.546 -46.8204 11.114C-46.7244 10.67 -46.5684 10.28 -46.3524 9.944C-46.1244 9.608 -45.8244 9.338 -45.4524 9.134C-45.0804 8.93 -44.6184 8.828 -44.0664 8.828C-43.4184 8.828 -42.9024 8.99 -42.5184 9.314C-42.1344 9.638 -41.8824 10.094 -41.7624 10.682ZM-38.4665 7.694V17H-36.9365V12.86C-36.9365 12.26 -36.8765 11.732 -36.7565 11.276C-36.6365 10.808 -36.4445 10.412 -36.1805 10.088C-35.9165 9.764 -35.5685 9.518 -35.1365 9.35C-34.7045 9.182 -34.1825 9.098 -33.5705 9.098V7.478C-34.3985 7.454 -35.0825 7.622 -35.6225 7.982C-36.1625 8.342 -36.6185 8.9 -36.9905 9.656H-37.0265V7.694H-38.4665ZM-26.2727 11.456H-31.6187C-31.5947 11.096 -31.5167 10.76 -31.3847 10.448C-31.2527 10.124 -31.0727 9.842 -30.8447 9.602C-30.6167 9.362 -30.3467 9.176 -30.0347 9.044C-29.7107 8.9 -29.3507 8.828 -28.9547 8.828C-28.5707 8.828 -28.2227 8.9 -27.9107 9.044C-27.5867 9.176 -27.3107 9.362 -27.0827 9.602C-26.8427 9.83 -26.6567 10.106 -26.5247 10.43C-26.3807 10.754 -26.2967 11.096 -26.2727 11.456ZM-24.7967 14.048H-26.3087C-26.4407 14.66 -26.7167 15.116 -27.1367 15.416C-27.5447 15.716 -28.0727 15.866 -28.7207 15.866C-29.2247 15.866 -29.6627 15.782 -30.0347 15.614C-30.4067 15.446 -30.7127 15.224 -30.9527 14.948C-31.1927 14.66 -31.3667 14.336 -31.4747 13.976C-31.5827 13.604 -31.6307 13.214 -31.6187 12.806H-24.6527C-24.6287 12.242 -24.6827 11.648 -24.8147 11.024C-24.9347 10.4 -25.1627 9.824 -25.4987 9.296C-25.8227 8.768 -26.2607 8.336 -26.8127 8C-27.3527 7.652 -28.0367 7.478 -28.8647 7.478C-29.5007 7.478 -30.0887 7.598 -30.6287 7.838C-31.1567 8.078 -31.6187 8.414 -32.0147 8.846C-32.3987 9.278 -32.6987 9.788 -32.9147 10.376C-33.1307 10.964 -33.2387 11.612 -33.2387 12.32C-33.2147 13.028 -33.1127 13.682 -32.9327 14.282C-32.7407 14.882 -32.4587 15.398 -32.0867 15.83C-31.7147 16.262 -31.2587 16.598 -30.7187 16.838C-30.1667 17.078 -29.5187 17.198 -28.7747 17.198C-27.7187 17.198 -26.8427 16.934 -26.1467 16.406C-25.4507 15.878 -25.0007 15.092 -24.7967 14.048ZM-16.6047 11.456H-21.9507C-21.9267 11.096 -21.8487 10.76 -21.7167 10.448C-21.5847 10.124 -21.4047 9.842 -21.1767 9.602C-20.9487 9.362 -20.6787 9.176 -20.3667 9.044C-20.0427 8.9 -19.6827 8.828 -19.2867 8.828C-18.9027 8.828 -18.5547 8.9 -18.2427 9.044C-17.9187 9.176 -17.6427 9.362 -17.4147 9.602C-17.1747 9.83 -16.9887 10.106 -16.8567 10.43C-16.7127 10.754 -16.6287 11.096 -16.6047 11.456ZM-15.1288 14.048H-16.6407C-16.7727 14.66 -17.0487 15.116 -17.4687 15.416C-17.8767 15.716 -18.4047 15.866 -19.0527 15.866C-19.5567 15.866 -19.9947 15.782 -20.3667 15.614C-20.7387 15.446 -21.0447 15.224 -21.2847 14.948C-21.5247 14.66 -21.6987 14.336 -21.8067 13.976C-21.9147 13.604 -21.9627 13.214 -21.9507 12.806H-14.9847C-14.9607 12.242 -15.0147 11.648 -15.1467 11.024C-15.2667 10.4 -15.4947 9.824 -15.8307 9.296C-16.1547 8.768 -16.5927 8.336 -17.1447 8C-17.6847 7.652 -18.3687 7.478 -19.1967 7.478C-19.8327 7.478 -20.4207 7.598 -20.9607 7.838C-21.4887 8.078 -21.9507 8.414 -22.3467 8.846C-22.7307 9.278 -23.0307 9.788 -23.2467 10.376C-23.4627 10.964 -23.5707 11.612 -23.5707 12.32C-23.5467 13.028 -23.4447 13.682 -23.2647 14.282C-23.0727 14.882 -22.7907 15.398 -22.4187 15.83C-22.0467 16.262 -21.5907 16.598 -21.0507 16.838C-20.4987 17.078 -19.8507 17.198 -19.1067 17.198C-18.0507 17.198 -17.1747 16.934 -16.4787 16.406C-15.7827 15.878 -15.3327 15.092 -15.1288 14.048ZM-13.3988 7.694V17H-11.8688V11.744C-11.8688 11.324 -11.8148 10.94 -11.7068 10.592C-11.5868 10.232 -11.4128 9.92 -11.1848 9.656C-10.9568 9.392 -10.6748 9.188 -10.3388 9.044C-9.99078 8.9 -9.58278 8.828 -9.11478 8.828C-8.52678 8.828 -8.06478 8.996 -7.72878 9.332C-7.39278 9.668 -7.22478 10.124 -7.22478 10.7V17H-5.69478V10.88C-5.69478 10.376 -5.74878 9.92 -5.85678 9.512C-5.95278 9.092 -6.12678 8.732 -6.37878 8.432C-6.63078 8.132 -6.96078 7.898 -7.36878 7.73C-7.77678 7.562 -8.28678 7.478 -8.89878 7.478C-10.2788 7.478 -11.2868 8.042 -11.9228 9.17H-11.9588V7.694H-13.3988Z" fill="#181818"/>
<path d="M16.8174 4.41406C16.4014 4.00977 15.9092 3.74902 15.3408 3.63184C14.7725 3.50879 14.125 3.44727 13.3984 3.44727H6.91211C6.20312 3.44727 5.56445 3.50879 4.99609 3.63184C4.42773 3.74902 3.94141 4.00977 3.53711 4.41406C3.12695 4.82422 2.86328 5.31348 2.74609 5.88184C2.63477 6.44434 2.5791 7.07715 2.5791 7.78027V14.2051C2.5791 14.9316 2.63477 15.582 2.74609 16.1562C2.85742 16.7246 3.12109 17.2109 3.53711 17.6152C3.94141 18.0195 4.42773 18.2803 4.99609 18.3975C5.57031 18.5205 6.2207 18.582 6.94727 18.582H13.3984C14.125 18.582 14.7725 18.5205 15.3408 18.3975C15.915 18.2803 16.4072 18.0195 16.8174 17.6152C17.2217 17.2051 17.4795 16.7158 17.5908 16.1475C17.708 15.5791 17.7666 14.9316 17.7666 14.2051V7.82422C17.7666 7.0918 17.708 6.44141 17.5908 5.87305C17.4795 5.30469 17.2217 4.81836 16.8174 4.41406ZM16.5537 7.5957V14.4336C16.5537 14.8848 16.5098 15.3184 16.4219 15.7344C16.3398 16.1445 16.1758 16.4756 15.9297 16.7275C15.6777 16.9795 15.3438 17.1465 14.9277 17.2285C14.5117 17.3164 14.0781 17.3604 13.627 17.3604H6.72754C6.27051 17.3604 5.83398 17.3164 5.41797 17.2285C5.00781 17.1465 4.67676 16.9795 4.4248 16.7275C4.16699 16.4756 3.99707 16.1445 3.91504 15.7344C3.83887 15.3184 3.80078 14.8848 3.80078 14.4336V7.62207C3.80078 7.15918 3.83887 6.71973 3.91504 6.30371C3.99707 5.8877 4.16406 5.55371 4.41602 5.30176C4.67383 5.0498 5.01074 4.87988 5.42676 4.79199C5.84863 4.7041 6.29102 4.66016 6.75391 4.66016H13.627C14.0781 4.66016 14.5117 4.7041 14.9277 4.79199C15.3438 4.87988 15.6777 5.0498 15.9297 5.30176C16.1758 5.55371 16.3398 5.88477 16.4219 6.29492C16.5098 6.70508 16.5537 7.13867 16.5537 7.5957ZM6.96484 11.6299H13.3896C13.583 11.6299 13.7383 11.5713 13.8555 11.4541C13.9727 11.3369 14.0312 11.1875 14.0312 11.0059C14.0312 10.8184 13.9727 10.666 13.8555 10.5488C13.7383 10.4258 13.583 10.3643 13.3896 10.3643H6.96484C6.77734 10.3643 6.62207 10.4258 6.49902 10.5488C6.38184 10.666 6.32324 10.8184 6.32324 11.0059C6.32324 11.1875 6.38184 11.3369 6.49902 11.4541C6.62207 11.5713 6.77734 11.6299 6.96484 11.6299ZM10.1729 14.8555C10.3604 14.8555 10.5127 14.7969 10.6299 14.6797C10.7471 14.5566 10.8057 14.4014 10.8057 14.2139V7.78906C10.8057 7.5957 10.7471 7.44043 10.6299 7.32324C10.5127 7.20605 10.3604 7.14746 10.1729 7.14746C9.98535 7.14746 9.83301 7.20898 9.71582 7.33203C9.60449 7.44922 9.54883 7.60156 9.54883 7.78906V14.2139C9.54883 14.4014 9.60449 14.5566 9.71582 14.6797C9.83301 14.7969 9.98535 14.8555 10.1729 14.8555Z" fill="black"/>
</g>
<defs>
<clipPath id="clip0_610_590">
<rect width="20" height="21" fill="white"/>
</clipPath>
</defs>
</svg>
