<svg width="40" height="111" viewBox="0 0 40 111" fill="none" xmlns="http://www.w3.org/2000/svg">
<path d="M16.4883 21.9102C15.3789 21.9102 14.3672 21.6445 13.4531 21.1133C12.5469 20.5742 11.8242 19.8516 11.2852 18.9453C10.7461 18.0312 10.4766 17.0156 10.4766 15.8984C10.4766 14.7812 10.7461 13.7695 11.2852 12.8633C11.8242 11.9492 12.5469 11.2227 13.4531 10.6836C14.3672 10.1445 15.3789 9.875 16.4883 9.875C17.5977 9.875 18.6055 10.1445 19.5117 10.6836C20.4258 11.2227 21.1523 11.9492 21.6914 12.8633C22.2305 13.7695 22.5 14.7812 22.5 15.8984C22.5 17.0156 22.2305 18.0312 21.6914 18.9453C21.1523 19.8516 20.4258 20.5742 19.5117 21.1133C18.6055 21.6445 17.5977 21.9102 16.4883 21.9102ZM16.4883 20.0703C17.2539 20.0703 17.9492 19.8828 18.5742 19.5078C19.207 19.125 19.7109 18.6211 20.0859 17.9961C20.4609 17.3711 20.6484 16.6719 20.6484 15.8984C20.6484 15.125 20.4609 14.4258 20.0859 13.8008C19.7109 13.168 19.207 12.668 18.5742 12.3008C17.9492 11.9258 17.2539 11.7383 16.4883 11.7383C15.7227 11.7383 15.0234 11.9258 14.3906 12.3008C13.7578 12.668 13.2539 13.168 12.8789 13.8008C12.5117 14.4258 12.3281 15.125 12.3281 15.8984C12.3281 16.6719 12.5156 17.3711 12.8906 17.9961C13.2656 18.6211 13.7656 19.125 14.3906 19.5078C15.0234 19.8828 15.7227 20.0703 16.4883 20.0703ZM6.39844 25.2969H26.5781C27.7578 25.2969 28.6484 25 29.25 24.4062C29.8516 23.8125 30.1523 22.9336 30.1523 21.7695V10.1445C30.1523 8.98047 29.8516 8.10156 29.25 7.50781C28.6484 6.91406 27.7578 6.61719 26.5781 6.61719H23.5312C23.2344 6.61719 22.9961 6.59766 22.8164 6.55859C22.6445 6.51172 22.4844 6.4375 22.3359 6.33594C22.1953 6.22656 22.0391 6.08203 21.8672 5.90234L20.9766 4.92969C20.6953 4.625 20.3867 4.39453 20.0508 4.23828C19.7148 4.08203 19.2656 4.00391 18.7031 4.00391H14.2031C13.6406 4.00391 13.1914 4.08203 12.8555 4.23828C12.5195 4.39453 12.2109 4.625 11.9297 4.92969L11.0391 5.90234C10.7812 6.17578 10.5469 6.36328 10.3359 6.46484C10.1328 6.56641 9.81641 6.61719 9.38672 6.61719H6.39844C5.21875 6.61719 4.32812 6.91406 3.72656 7.50781C3.125 8.10156 2.82422 8.98047 2.82422 10.1445V21.7695C2.82422 22.9336 3.125 23.8125 3.72656 24.4062C4.32812 25 5.21875 25.2969 6.39844 25.2969ZM23.2266 11.8203C23.2266 11.4297 23.3711 11.0938 23.6602 10.8125C23.9492 10.5234 24.293 10.3789 24.6914 10.3789C25.082 10.3789 25.4219 10.5234 25.7109 10.8125C26 11.0938 26.1445 11.4297 26.1445 11.8203C26.1445 12.2266 26 12.5703 25.7109 12.8516C25.4219 13.125 25.082 13.2656 24.6914 13.2734C24.293 13.2734 23.9492 13.1328 23.6602 12.8516C23.3711 12.5703 23.2266 12.2266 23.2266 11.8203ZM2.51953 52L4.10156 47.2656H9.99609L11.5781 52H13.8516L8.19141 36.0039H5.94141L0.28125 52H2.51953ZM7.08984 38.4766L9.43359 45.543H4.66406L7.01953 38.4766H7.08984ZM20.3203 39.4844C19.2891 39.4844 18.4062 39.7344 17.6719 40.2344C16.9453 40.7344 16.3867 41.418 15.9961 42.2852C15.6055 43.1523 15.4102 44.1484 15.4102 45.2734V46.3867C15.4102 47.5352 15.5977 48.5469 15.9727 49.4219C16.3477 50.2891 16.8984 50.9648 17.625 51.4492C18.3594 51.9336 19.2578 52.1758 20.3203 52.1758C20.7344 52.1758 21.1211 52.1289 21.4805 52.0352C21.8477 51.9414 22.1836 51.8086 22.4883 51.6367C22.793 51.4648 23.0664 51.2539 23.3086 51.0039C23.5586 50.7461 23.7695 50.457 23.9414 50.1367H24V52H26.0391V35.1602H23.918V41.3945H23.8477C23.6445 41.0273 23.3711 40.6992 23.0273 40.4102C22.6836 40.1211 22.2812 39.8945 21.8203 39.7305C21.3594 39.5664 20.8594 39.4844 20.3203 39.4844ZM20.6602 41.3125C21.3398 41.3125 21.9258 41.4805 22.418 41.8164C22.9102 42.1445 23.2891 42.6133 23.5547 43.2227C23.8203 43.8242 23.9531 44.5352 23.9531 45.3555V46.3281C23.9531 47.1875 23.8203 47.918 23.5547 48.5195C23.2969 49.1133 22.9219 49.5703 22.4297 49.8906C21.9453 50.2031 21.3672 50.3594 20.6953 50.3594C20.0859 50.3594 19.543 50.2109 19.0664 49.9141C18.5977 49.6172 18.2266 49.168 17.9531 48.5664C17.6875 47.9648 17.5547 47.2148 17.5547 46.3164V45.3555C17.5547 44.457 17.6875 43.707 17.9531 43.1055C18.2188 42.5039 18.5859 42.0547 19.0547 41.7578C19.5312 41.4609 20.0664 41.3125 20.6602 41.3125ZM34.0078 39.4844C32.9766 39.4844 32.0938 39.7344 31.3594 40.2344C30.6328 40.7344 30.0742 41.418 29.6836 42.2852C29.293 43.1523 29.0977 44.1484 29.0977 45.2734V46.3867C29.0977 47.5352 29.2852 48.5469 29.6602 49.4219C30.0352 50.2891 30.5859 50.9648 31.3125 51.4492C32.0469 51.9336 32.9453 52.1758 34.0078 52.1758C34.4219 52.1758 34.8086 52.1289 35.168 52.0352C35.5352 51.9414 35.8711 51.8086 36.1758 51.6367C36.4805 51.4648 36.7539 51.2539 36.9961 51.0039C37.2461 50.7461 37.457 50.457 37.6289 50.1367H37.6875V52H39.7266V35.1602H37.6055V41.3945H37.5352C37.332 41.0273 37.0586 40.6992 36.7148 40.4102C36.3711 40.1211 35.9688 39.8945 35.5078 39.7305C35.0469 39.5664 34.5469 39.4844 34.0078 39.4844ZM34.3477 41.3125C35.0273 41.3125 35.6133 41.4805 36.1055 41.8164C36.5977 42.1445 36.9766 42.6133 37.2422 43.2227C37.5078 43.8242 37.6406 44.5352 37.6406 45.3555V46.3281C37.6406 47.1875 37.5078 47.918 37.2422 48.5195C36.9844 49.1133 36.6094 49.5703 36.1172 49.8906C35.6328 50.2031 35.0547 50.3594 34.3828 50.3594C33.7734 50.3594 33.2305 50.2109 32.7539 49.9141C32.2852 49.6172 31.9141 49.168 31.6406 48.5664C31.375 47.9648 31.2422 47.2148 31.2422 46.3164V45.3555C31.2422 44.457 31.375 43.707 31.6406 43.1055C31.9062 42.5039 32.2734 42.0547 32.7422 41.7578C33.2188 41.4609 33.7539 41.3125 34.3477 41.3125ZM7.78125 65.0039H1.89844V81H4.05469V75.0234H7.76953C8.80859 75.0234 9.71094 74.8164 10.4766 74.4023C11.2422 73.9805 11.8359 73.3945 12.2578 72.6445C12.6875 71.8867 12.9023 71.0117 12.9023 70.0195C12.9023 69.0273 12.6875 68.1562 12.2578 67.4062C11.8359 66.6562 11.2422 66.0703 10.4766 65.6484C9.71094 65.2188 8.8125 65.0039 7.78125 65.0039ZM10.6875 70.0195C10.6875 70.8789 10.5195 71.5352 10.1836 71.9883C9.84766 72.4414 9.35938 72.75 8.71875 72.9141C8.08594 73.0703 7.32031 73.1484 6.42188 73.1484H4.05469V66.8906H7.58203C8.56641 66.8906 9.32812 67.1641 9.86719 67.7109C10.4141 68.25 10.6875 69.0195 10.6875 70.0195ZM15.3281 81H17.4492V73.5234C17.4492 72.9609 17.5547 72.4414 17.7656 71.9648C17.9766 71.4883 18.3008 71.1055 18.7383 70.8164C19.1758 70.5195 19.7383 70.3711 20.4258 70.3711C21.0117 70.3711 21.5273 70.4883 21.9727 70.7227C22.418 70.9492 22.7617 71.293 23.0039 71.7539C23.2539 72.207 23.3789 72.7773 23.3789 73.4648V81H25.5V73.0898C25.5 71.5898 25.082 70.4453 24.2461 69.6562C23.418 68.8672 22.3672 68.4727 21.0938 68.4727C20.4297 68.4727 19.8555 68.5742 19.3711 68.7773C18.8945 68.9727 18.5039 69.2148 18.1992 69.5039C17.8945 69.7852 17.668 70.0586 17.5195 70.3242H17.4492V64.1602H15.3281V81ZM33.7031 68.4727C32.5469 68.4727 31.5703 68.7266 30.7734 69.2344C29.9844 69.7422 29.3867 70.4336 28.9805 71.3086C28.5742 72.1836 28.3711 73.1719 28.3711 74.2734V75.3516C28.3711 76.4688 28.5703 77.4727 28.9688 78.3633C29.375 79.2461 29.9766 79.9414 30.7734 80.4492C31.5703 80.9492 32.5469 81.1992 33.7031 81.1992C34.8594 81.1992 35.832 80.9492 36.6211 80.4492C37.4102 79.9414 38.0078 79.2461 38.4141 78.3633C38.8203 77.4727 39.0234 76.4688 39.0234 75.3516V74.2734C39.0234 73.1719 38.8203 72.1836 38.4141 71.3086C38.0078 70.4336 37.4102 69.7422 36.6211 69.2344C35.832 68.7266 34.8594 68.4727 33.7031 68.4727ZM33.7031 70.2656C34.3984 70.2656 34.9805 70.4336 35.4492 70.7695C35.9258 71.1055 36.2852 71.5781 36.5273 72.1875C36.7695 72.7969 36.8906 73.5156 36.8906 74.3438V75.3047C36.8906 76.125 36.7695 76.8398 36.5273 77.4492C36.2852 78.0586 35.9258 78.5352 35.4492 78.8789C34.9805 79.2227 34.3984 79.3945 33.7031 79.3945C33.0078 79.3945 32.4219 79.2227 31.9453 78.8789C31.4688 78.5352 31.1055 78.0586 30.8555 77.4492C30.6133 76.832 30.4922 76.1172 30.4922 75.3047V74.3438C30.4922 73.5156 30.6133 72.7969 30.8555 72.1875C31.1055 71.5781 31.4688 71.1055 31.9453 70.7695C32.4297 70.4336 33.0156 70.2656 33.7031 70.2656ZM2.56641 97.6719H0.878906V99.4297H2.54297V106.543C2.54297 107.355 2.63672 108.027 2.82422 108.559C3.01953 109.082 3.37109 109.473 3.87891 109.73C4.39453 109.98 5.14062 110.105 6.11719 110.105C6.33594 110.105 6.54688 110.094 6.75 110.07C6.95312 110.055 7.09766 110.039 7.18359 110.023V108.336C7.10547 108.344 7.02344 108.352 6.9375 108.359C6.85156 108.359 6.75781 108.359 6.65625 108.359C5.90625 108.359 5.38672 108.238 5.09766 107.996C4.80859 107.746 4.66406 107.258 4.66406 106.531V99.4297H7.08984V97.6719H4.66406V94.6133H2.56641V97.6719ZM14.7891 97.4727C13.6328 97.4727 12.6562 97.7266 11.8594 98.2344C11.0703 98.7422 10.4727 99.4336 10.0664 100.309C9.66016 101.184 9.45703 102.172 9.45703 103.273V104.352C9.45703 105.469 9.65625 106.473 10.0547 107.363C10.4609 108.246 11.0625 108.941 11.8594 109.449C12.6562 109.949 13.6328 110.199 14.7891 110.199C15.9453 110.199 16.918 109.949 17.707 109.449C18.4961 108.941 19.0938 108.246 19.5 107.363C19.9062 106.473 20.1094 105.469 20.1094 104.352V103.273C20.1094 102.172 19.9062 101.184 19.5 100.309C19.0938 99.4336 18.4961 98.7422 17.707 98.2344C16.918 97.7266 15.9453 97.4727 14.7891 97.4727ZM14.7891 99.2656C15.4844 99.2656 16.0664 99.4336 16.5352 99.7695C17.0117 100.105 17.3711 100.578 17.6133 101.188C17.8555 101.797 17.9766 102.516 17.9766 103.344V104.305C17.9766 105.125 17.8555 105.84 17.6133 106.449C17.3711 107.059 17.0117 107.535 16.5352 107.879C16.0664 108.223 15.4844 108.395 14.7891 108.395C14.0938 108.395 13.5078 108.223 13.0312 107.879C12.5547 107.535 12.1914 107.059 11.9414 106.449C11.6992 105.832 11.5781 105.117 11.5781 104.305V103.344C11.5781 102.516 11.6992 101.797 11.9414 101.188C12.1914 100.578 12.5547 100.105 13.0312 99.7695C13.5156 99.4336 14.1016 99.2656 14.7891 99.2656Z" fill="#484848"/>
</svg>
