<svg width="21" height="21" viewBox="0 0 21 21" fill="none" xmlns="http://www.w3.org/2000/svg">
<path d="M16.0125 4.99613C15.6713 4.65488 15.12 4.65488 14.7788 4.99613L10.5 9.26613L6.22126 4.98738C5.88001 4.64613 5.32875 4.64613 4.9875 4.98738C4.64625 5.32863 4.64625 5.87988 4.9875 6.22113L9.26626 10.4999L4.9875 14.7786C4.64625 15.1199 4.64625 15.6711 4.9875 16.0124C5.32875 16.3536 5.88001 16.3536 6.22126 16.0124L10.5 11.7336L14.7788 16.0124C15.12 16.3536 15.6713 16.3536 16.0125 16.0124C16.3538 15.6711 16.3538 15.1199 16.0125 14.7786L11.7338 10.4999L16.0125 6.22113C16.345 5.88863 16.345 5.32863 16.0125 4.99613Z" fill="#484848"/>
</svg>
