<svg width="29" height="30" viewBox="0 0 29 30" fill="none" xmlns="http://www.w3.org/2000/svg">
<path d="M6.9458 26.4414H21.7529C23.0306 26.4414 23.9868 26.124 24.6216 25.4893C25.2645 24.8626 25.5859 23.9186 25.5859 22.6572V7.75244C25.5859 6.49105 25.2645 5.54704 24.6216 4.92041C23.9868 4.28564 23.0306 3.96826 21.7529 3.96826H6.9458C5.66813 3.96826 4.70785 4.28564 4.06494 4.92041C3.43018 5.54704 3.11279 6.49105 3.11279 7.75244V22.6572C3.11279 23.9186 3.43018 24.8626 4.06494 25.4893C4.70785 26.124 5.66813 26.4414 6.9458 26.4414ZM6.97021 24.4761C6.35986 24.4761 5.89193 24.3174 5.56641 24C5.24089 23.6745 5.07812 23.1943 5.07812 22.5596V7.8501C5.07812 7.21533 5.24089 6.73926 5.56641 6.42188C5.89193 6.09635 6.35986 5.93359 6.97021 5.93359H21.7285C22.3307 5.93359 22.7946 6.09635 23.1201 6.42188C23.4538 6.73926 23.6206 7.21533 23.6206 7.8501V22.5596C23.6206 23.1943 23.4538 23.6745 23.1201 24C22.7946 24.3174 22.3307 24.4761 21.7285 24.4761H6.97021ZM9.7168 16.1997H19.0186C19.3197 16.1997 19.5679 16.1061 19.7632 15.9189C19.9585 15.7318 20.0562 15.4917 20.0562 15.1987C20.0562 14.8895 19.9585 14.6413 19.7632 14.4541C19.576 14.2588 19.3278 14.1611 19.0186 14.1611H9.7168C9.39941 14.1611 9.14307 14.2588 8.94775 14.4541C8.76058 14.6413 8.66699 14.8895 8.66699 15.1987C8.66699 15.4917 8.76465 15.7318 8.95996 15.9189C9.15527 16.1061 9.40755 16.1997 9.7168 16.1997ZM14.3433 20.875C14.6525 20.875 14.9007 20.7814 15.0879 20.5942C15.2832 20.3989 15.3809 20.1466 15.3809 19.8374V10.5356C15.3809 10.2264 15.2832 9.97412 15.0879 9.77881C14.9007 9.5835 14.6525 9.48584 14.3433 9.48584C14.0422 9.48584 13.798 9.5835 13.6108 9.77881C13.4318 9.97412 13.3423 10.2264 13.3423 10.5356V19.8374C13.3423 20.1466 13.4318 20.3989 13.6108 20.5942C13.798 20.7814 14.0422 20.875 14.3433 20.875Z" fill="#484848"/>
</svg>
