<svg width="24" height="24" viewBox="0 0 24 24" fill="none" xmlns="http://www.w3.org/2000/svg">
<path d="M5.00098 19.7393H19.1514C19.8838 19.7393 20.3965 19.5986 20.6895 19.3174L14.3525 13.042L13.7725 13.6309C13.1982 14.1934 12.5947 14.4746 11.9619 14.4746C11.3232 14.4746 10.7197 14.1934 10.1514 13.6309L9.5625 13.042L3.24316 19.3086C3.57715 19.5957 4.16309 19.7393 5.00098 19.7393ZM2.46094 18.3242L8.6748 12.1807L2.44336 6.03711C2.30859 6.28906 2.24121 6.71387 2.24121 7.31152V17.0146C2.24121 17.6357 2.31445 18.0723 2.46094 18.3242ZM16.2158 4.5957H4.7373C3.99316 4.5957 3.47461 4.73926 3.18164 5.02637L10.8809 12.6289C11.0684 12.8223 11.25 12.9629 11.4258 13.0508C11.6016 13.1387 11.7803 13.1826 11.9619 13.1826C12.1436 13.1826 12.3193 13.1387 12.4893 13.0508C12.665 12.957 12.8496 12.8164 13.043 12.6289L16.9629 8.75293C16.6523 8.38965 16.4062 7.97363 16.2246 7.50488C16.0488 7.03613 15.9609 6.54102 15.9609 6.01953C15.9609 5.76758 15.9814 5.52441 16.0225 5.29004C16.0693 5.0498 16.1338 4.81836 16.2158 4.5957ZM17.8857 9.57031L15.249 12.1807L21.4365 18.3066C21.5771 18.0605 21.6475 17.6299 21.6475 17.0146V10.0273C21.4248 10.1094 21.1934 10.1738 20.9531 10.2207C20.7129 10.2617 20.4697 10.2822 20.2236 10.2822C19.79 10.2822 19.374 10.2207 18.9756 10.0977C18.583 9.97461 18.2197 9.79883 17.8857 9.57031ZM20.2236 9.07812C20.7803 9.07812 21.29 8.94043 21.7529 8.66504C22.2158 8.38379 22.585 8.01172 22.8604 7.54883C23.1357 7.08594 23.2734 6.57617 23.2734 6.01953C23.2734 5.46289 23.1357 4.95313 22.8604 4.49023C22.585 4.02734 22.2158 3.6582 21.7529 3.38281C21.29 3.10156 20.7803 2.96094 20.2236 2.96094C19.6611 2.96094 19.1484 3.09863 18.6855 3.37402C18.2227 3.64941 17.8535 4.01855 17.5781 4.48145C17.3027 4.94434 17.165 5.45703 17.165 6.01953C17.165 6.58203 17.3027 7.09473 17.5781 7.55762C17.8535 8.01465 18.2227 8.38379 18.6855 8.66504C19.1484 8.94043 19.6611 9.07812 20.2236 9.07812ZM20.2236 7.68945C19.9131 7.68945 19.6318 7.61328 19.3799 7.46094C19.1279 7.30859 18.9258 7.10645 18.7734 6.85449C18.627 6.60254 18.5537 6.32422 18.5537 6.01953C18.5537 5.71484 18.627 5.43652 18.7734 5.18457C18.9258 4.93262 19.1279 4.73047 19.3799 4.57812C19.6318 4.42578 19.9131 4.34961 20.2236 4.34961C20.5225 4.34961 20.7979 4.42578 21.0498 4.57812C21.3076 4.73047 21.5098 4.93262 21.6562 5.18457C21.8086 5.43652 21.8848 5.71484 21.8848 6.01953C21.8848 6.32422 21.8086 6.60254 21.6562 6.85449C21.5098 7.10645 21.3076 7.30859 21.0498 7.46094C20.7979 7.61328 20.5225 7.68945 20.2236 7.68945Z" fill="#484848"/>
</svg>
