<svg width="31" height="31" viewBox="0 0 31 31" fill="none" xmlns="http://www.w3.org/2000/svg">
<g clip-path="url(#clip0_407_139)">
<path d="M15.4883 21.9102C14.3789 21.9102 13.3672 21.6445 12.4531 21.1133C11.5469 20.5742 10.8242 19.8516 10.2852 18.9453C9.74609 18.0312 9.47656 17.0156 9.47656 15.8984C9.47656 14.7812 9.74609 13.7695 10.2852 12.8633C10.8242 11.9492 11.5469 11.2227 12.4531 10.6836C13.3672 10.1445 14.3789 9.875 15.4883 9.875C16.5977 9.875 17.6055 10.1445 18.5117 10.6836C19.4258 11.2227 20.1523 11.9492 20.6914 12.8633C21.2305 13.7695 21.5 14.7812 21.5 15.8984C21.5 17.0156 21.2305 18.0312 20.6914 18.9453C20.1523 19.8516 19.4258 20.5742 18.5117 21.1133C17.6055 21.6445 16.5977 21.9102 15.4883 21.9102ZM15.4883 20.0703C16.2539 20.0703 16.9492 19.8828 17.5742 19.5078C18.207 19.125 18.7109 18.6211 19.0859 17.9961C19.4609 17.3711 19.6484 16.6719 19.6484 15.8984C19.6484 15.125 19.4609 14.4258 19.0859 13.8008C18.7109 13.168 18.207 12.668 17.5742 12.3008C16.9492 11.9258 16.2539 11.7383 15.4883 11.7383C14.7227 11.7383 14.0234 11.9258 13.3906 12.3008C12.7578 12.668 12.2539 13.168 11.8789 13.8008C11.5117 14.4258 11.3281 15.125 11.3281 15.8984C11.3281 16.6719 11.5156 17.3711 11.8906 17.9961C12.2656 18.6211 12.7656 19.125 13.3906 19.5078C14.0234 19.8828 14.7227 20.0703 15.4883 20.0703ZM5.39844 25.2969H25.5781C26.7578 25.2969 27.6484 25 28.25 24.4062C28.8516 23.8125 29.1523 22.9336 29.1523 21.7695V10.1445C29.1523 8.98047 28.8516 8.10156 28.25 7.50781C27.6484 6.91406 26.7578 6.61719 25.5781 6.61719H22.5312C22.2344 6.61719 21.9961 6.59766 21.8164 6.55859C21.6445 6.51172 21.4844 6.4375 21.3359 6.33594C21.1953 6.22656 21.0391 6.08203 20.8672 5.90234L19.9766 4.92969C19.6953 4.625 19.3867 4.39453 19.0508 4.23828C18.7148 4.08203 18.2656 4.00391 17.7031 4.00391H13.2031C12.6406 4.00391 12.1914 4.08203 11.8555 4.23828C11.5195 4.39453 11.2109 4.625 10.9297 4.92969L10.0391 5.90234C9.78125 6.17578 9.54688 6.36328 9.33594 6.46484C9.13281 6.56641 8.81641 6.61719 8.38672 6.61719H5.39844C4.21875 6.61719 3.32812 6.91406 2.72656 7.50781C2.125 8.10156 1.82422 8.98047 1.82422 10.1445V21.7695C1.82422 22.9336 2.125 23.8125 2.72656 24.4062C3.32812 25 4.21875 25.2969 5.39844 25.2969ZM22.2266 11.8203C22.2266 11.4297 22.3711 11.0938 22.6602 10.8125C22.9492 10.5234 23.293 10.3789 23.6914 10.3789C24.082 10.3789 24.4219 10.5234 24.7109 10.8125C25 11.0938 25.1445 11.4297 25.1445 11.8203C25.1445 12.2266 25 12.5703 24.7109 12.8516C24.4219 13.125 24.082 13.2656 23.6914 13.2734C23.293 13.2734 22.9492 13.1328 22.6602 12.8516C22.3711 12.5703 22.2266 12.2266 22.2266 11.8203ZM1.51953 52L3.10156 47.2656H8.99609L10.5781 52H12.8516L7.19141 36.0039H4.94141L-0.71875 52H1.51953ZM6.08984 38.4766L8.43359 45.543H3.66406L6.01953 38.4766H6.08984ZM19.3203 39.4844C18.2891 39.4844 17.4062 39.7344 16.6719 40.2344C15.9453 40.7344 15.3867 41.418 14.9961 42.2852C14.6055 43.1523 14.4102 44.1484 14.4102 45.2734V46.3867C14.4102 47.5352 14.5977 48.5469 14.9727 49.4219C15.3477 50.2891 15.8984 50.9648 16.625 51.4492C17.3594 51.9336 18.2578 52.1758 19.3203 52.1758C19.7344 52.1758 20.1211 52.1289 20.4805 52.0352C20.8477 51.9414 21.1836 51.8086 21.4883 51.6367C21.793 51.4648 22.0664 51.2539 22.3086 51.0039C22.5586 50.7461 22.7695 50.457 22.9414 50.1367H23V52H25.0391V35.1602H22.918V41.3945H22.8477C22.6445 41.0273 22.3711 40.6992 22.0273 40.4102C21.6836 40.1211 21.2812 39.8945 20.8203 39.7305C20.3594 39.5664 19.8594 39.4844 19.3203 39.4844ZM19.6602 41.3125C20.3398 41.3125 20.9258 41.4805 21.418 41.8164C21.9102 42.1445 22.2891 42.6133 22.5547 43.2227C22.8203 43.8242 22.9531 44.5352 22.9531 45.3555V46.3281C22.9531 47.1875 22.8203 47.918 22.5547 48.5195C22.2969 49.1133 21.9219 49.5703 21.4297 49.8906C20.9453 50.2031 20.3672 50.3594 19.6953 50.3594C19.0859 50.3594 18.543 50.2109 18.0664 49.9141C17.5977 49.6172 17.2266 49.168 16.9531 48.5664C16.6875 47.9648 16.5547 47.2148 16.5547 46.3164V45.3555C16.5547 44.457 16.6875 43.707 16.9531 43.1055C17.2188 42.5039 17.5859 42.0547 18.0547 41.7578C18.5312 41.4609 19.0664 41.3125 19.6602 41.3125ZM33.0078 39.4844C31.9766 39.4844 31.0938 39.7344 30.3594 40.2344C29.6328 40.7344 29.0742 41.418 28.6836 42.2852C28.293 43.1523 28.0977 44.1484 28.0977 45.2734V46.3867C28.0977 47.5352 28.2852 48.5469 28.6602 49.4219C29.0352 50.2891 29.5859 50.9648 30.3125 51.4492C31.0469 51.9336 31.9453 52.1758 33.0078 52.1758C33.4219 52.1758 33.8086 52.1289 34.168 52.0352C34.5352 51.9414 34.8711 51.8086 35.1758 51.6367C35.4805 51.4648 35.7539 51.2539 35.9961 51.0039C36.2461 50.7461 36.457 50.457 36.6289 50.1367H36.6875V52H38.7266V35.1602H36.6055V41.3945H36.5352C36.332 41.0273 36.0586 40.6992 35.7148 40.4102C35.3711 40.1211 34.9688 39.8945 34.5078 39.7305C34.0469 39.5664 33.5469 39.4844 33.0078 39.4844ZM33.3477 41.3125C34.0273 41.3125 34.6133 41.4805 35.1055 41.8164C35.5977 42.1445 35.9766 42.6133 36.2422 43.2227C36.5078 43.8242 36.6406 44.5352 36.6406 45.3555V46.3281C36.6406 47.1875 36.5078 47.918 36.2422 48.5195C35.9844 49.1133 35.6094 49.5703 35.1172 49.8906C34.6328 50.2031 34.0547 50.3594 33.3828 50.3594C32.7734 50.3594 32.2305 50.2109 31.7539 49.9141C31.2852 49.6172 30.9141 49.168 30.6406 48.5664C30.375 47.9648 30.2422 47.2148 30.2422 46.3164V45.3555C30.2422 44.457 30.375 43.707 30.6406 43.1055C30.9062 42.5039 31.2734 42.0547 31.7422 41.7578C32.2188 41.4609 32.7539 41.3125 33.3477 41.3125ZM6.78125 65.0039H0.898438V81H3.05469V75.0234H6.76953C7.80859 75.0234 8.71094 74.8164 9.47656 74.4023C10.2422 73.9805 10.8359 73.3945 11.2578 72.6445C11.6875 71.8867 11.9023 71.0117 11.9023 70.0195C11.9023 69.0273 11.6875 68.1562 11.2578 67.4062C10.8359 66.6562 10.2422 66.0703 9.47656 65.6484C8.71094 65.2188 7.8125 65.0039 6.78125 65.0039ZM9.6875 70.0195C9.6875 70.8789 9.51953 71.5352 9.18359 71.9883C8.84766 72.4414 8.35938 72.75 7.71875 72.9141C7.08594 73.0703 6.32031 73.1484 5.42188 73.1484H3.05469V66.8906H6.58203C7.56641 66.8906 8.32812 67.1641 8.86719 67.7109C9.41406 68.25 9.6875 69.0195 9.6875 70.0195ZM14.3281 81H16.4492V73.5234C16.4492 72.9609 16.5547 72.4414 16.7656 71.9648C16.9766 71.4883 17.3008 71.1055 17.7383 70.8164C18.1758 70.5195 18.7383 70.3711 19.4258 70.3711C20.0117 70.3711 20.5273 70.4883 20.9727 70.7227C21.418 70.9492 21.7617 71.293 22.0039 71.7539C22.2539 72.207 22.3789 72.7773 22.3789 73.4648V81H24.5V73.0898C24.5 71.5898 24.082 70.4453 23.2461 69.6562C22.418 68.8672 21.3672 68.4727 20.0938 68.4727C19.4297 68.4727 18.8555 68.5742 18.3711 68.7773C17.8945 68.9727 17.5039 69.2148 17.1992 69.5039C16.8945 69.7852 16.668 70.0586 16.5195 70.3242H16.4492V64.1602H14.3281V81ZM32.7031 68.4727C31.5469 68.4727 30.5703 68.7266 29.7734 69.2344C28.9844 69.7422 28.3867 70.4336 27.9805 71.3086C27.5742 72.1836 27.3711 73.1719 27.3711 74.2734V75.3516C27.3711 76.4688 27.5703 77.4727 27.9688 78.3633C28.375 79.2461 28.9766 79.9414 29.7734 80.4492C30.5703 80.9492 31.5469 81.1992 32.7031 81.1992C33.8594 81.1992 34.832 80.9492 35.6211 80.4492C36.4102 79.9414 37.0078 79.2461 37.4141 78.3633C37.8203 77.4727 38.0234 76.4688 38.0234 75.3516V74.2734C38.0234 73.1719 37.8203 72.1836 37.4141 71.3086C37.0078 70.4336 36.4102 69.7422 35.6211 69.2344C34.832 68.7266 33.8594 68.4727 32.7031 68.4727ZM32.7031 70.2656C33.3984 70.2656 33.9805 70.4336 34.4492 70.7695C34.9258 71.1055 35.2852 71.5781 35.5273 72.1875C35.7695 72.7969 35.8906 73.5156 35.8906 74.3438V75.3047C35.8906 76.125 35.7695 76.8398 35.5273 77.4492C35.2852 78.0586 34.9258 78.5352 34.4492 78.8789C33.9805 79.2227 33.3984 79.3945 32.7031 79.3945C32.0078 79.3945 31.4219 79.2227 30.9453 78.8789C30.4688 78.5352 30.1055 78.0586 29.8555 77.4492C29.6133 76.832 29.4922 76.1172 29.4922 75.3047V74.3438C29.4922 73.5156 29.6133 72.7969 29.8555 72.1875C30.1055 71.5781 30.4688 71.1055 30.9453 70.7695C31.4297 70.4336 32.0156 70.2656 32.7031 70.2656ZM1.56641 97.6719H-0.121094V99.4297H1.54297V106.543C1.54297 107.355 1.63672 108.027 1.82422 108.559C2.01953 109.082 2.37109 109.473 2.87891 109.73C3.39453 109.98 4.14062 110.105 5.11719 110.105C5.33594 110.105 5.54688 110.094 5.75 110.07C5.95312 110.055 6.09766 110.039 6.18359 110.023V108.336C6.10547 108.344 6.02344 108.352 5.9375 108.359C5.85156 108.359 5.75781 108.359 5.65625 108.359C4.90625 108.359 4.38672 108.238 4.09766 107.996C3.80859 107.746 3.66406 107.258 3.66406 106.531V99.4297H6.08984V97.6719H3.66406V94.6133H1.56641V97.6719ZM13.7891 97.4727C12.6328 97.4727 11.6562 97.7266 10.8594 98.2344C10.0703 98.7422 9.47266 99.4336 9.06641 100.309C8.66016 101.184 8.45703 102.172 8.45703 103.273V104.352C8.45703 105.469 8.65625 106.473 9.05469 107.363C9.46094 108.246 10.0625 108.941 10.8594 109.449C11.6562 109.949 12.6328 110.199 13.7891 110.199C14.9453 110.199 15.918 109.949 16.707 109.449C17.4961 108.941 18.0938 108.246 18.5 107.363C18.9062 106.473 19.1094 105.469 19.1094 104.352V103.273C19.1094 102.172 18.9062 101.184 18.5 100.309C18.0938 99.4336 17.4961 98.7422 16.707 98.2344C15.918 97.7266 14.9453 97.4727 13.7891 97.4727ZM13.7891 99.2656C14.4844 99.2656 15.0664 99.4336 15.5352 99.7695C16.0117 100.105 16.3711 100.578 16.6133 101.188C16.8555 101.797 16.9766 102.516 16.9766 103.344V104.305C16.9766 105.125 16.8555 105.84 16.6133 106.449C16.3711 107.059 16.0117 107.535 15.5352 107.879C15.0664 108.223 14.4844 108.395 13.7891 108.395C13.0938 108.395 12.5078 108.223 12.0312 107.879C11.5547 107.535 11.1914 107.059 10.9414 106.449C10.6992 105.832 10.5781 105.117 10.5781 104.305V103.344C10.5781 102.516 10.6992 101.797 10.9414 101.188C11.1914 100.578 11.5547 100.105 12.0312 99.7695C12.5156 99.4336 13.1016 99.2656 13.7891 99.2656Z" fill="#484848"/>
</g>
<defs>
<clipPath id="clip0_407_139">
<rect width="31" height="31" fill="white"/>
</clipPath>
</defs>
</svg>
