<svg width="30" height="30" viewBox="0 0 30 30" fill="none" xmlns="http://www.w3.org/2000/svg">
<path d="M8.38686 27.2771H21.1431C22.284 27.2771 23.1579 26.9817 23.7648 26.391C24.3797 25.8004 24.6872 24.9305 24.6872 23.7815V16.3292H24.7722C25.3062 16.216 25.7148 15.953 25.998 15.5403C26.2893 15.1277 26.435 14.6138 26.435 13.9989V10.8068C26.435 10.0705 26.2367 9.48382 25.8403 9.04687C25.4438 8.60993 24.8733 8.39146 24.1289 8.39146H21.6772C22.0008 8.07589 22.2517 7.70368 22.4297 7.27483C22.6077 6.83789 22.6967 6.36858 22.6967 5.86691C22.6967 5.08203 22.5066 4.38616 22.1263 3.7793C21.754 3.17243 21.2483 2.69908 20.6091 2.35924C19.978 2.0113 19.27 1.83733 18.4851 1.83733C17.9187 1.83733 17.3887 1.93848 16.8951 2.14076C16.4096 2.34305 15.9848 2.63435 15.6207 3.01465C15.2566 3.39495 14.9693 3.85617 14.7589 4.3983C14.5566 3.85617 14.2694 3.39495 13.8972 3.01465C13.5331 2.63435 13.1083 2.34305 12.6228 2.14076C12.1373 1.93848 11.6073 1.83733 11.0328 1.83733C10.2479 1.83733 9.53585 2.0113 8.89662 2.35924C8.26549 2.69908 7.75977 3.17243 7.37946 3.7793C7.00725 4.38616 6.82115 5.08203 6.82115 5.86691C6.82115 6.36858 6.91016 6.83789 7.08817 7.27483C7.27427 7.70368 7.52916 8.07589 7.85282 8.39146H5.40109C4.68903 8.39146 4.12667 8.60993 3.71401 9.04687C3.30134 9.48382 3.09501 10.0705 3.09501 10.8068V13.9989C3.09501 14.6138 3.23661 15.1277 3.51981 15.5403C3.80301 15.953 4.21164 16.216 4.74568 16.3292H4.83064V23.7815C4.83064 24.9305 5.13407 25.8004 5.74093 26.391C6.35589 26.9817 7.23786 27.2771 8.38686 27.2771ZM13.6787 25.4565H8.36258C7.86091 25.4565 7.47252 25.3189 7.19741 25.0438C6.92229 24.7687 6.78474 24.3803 6.78474 23.8786V16.4142H13.6787V25.4565ZM15.8391 25.4565V16.4142H22.7331V23.8786C22.7331 24.3803 22.5956 24.7687 22.3205 25.0438C22.0534 25.3189 21.665 25.4565 21.1553 25.4565H15.8391ZM13.6787 14.5815H5.89872C5.59124 14.5815 5.37277 14.5167 5.2433 14.3873C5.11384 14.2497 5.04911 14.0272 5.04911 13.7197V11.0738C5.04911 10.7663 5.11384 10.5479 5.2433 10.4184C5.37277 10.2889 5.59124 10.2242 5.89872 10.2242H13.6787V14.5815ZM15.8391 14.5815V10.2242H23.6434C23.9428 10.2242 24.1572 10.2889 24.2867 10.4184C24.4162 10.5479 24.4809 10.7663 24.4809 11.0738V13.7197C24.4809 14.0272 24.4162 14.2497 24.2867 14.3873C24.1572 14.5167 23.9428 14.5815 23.6434 14.5815H15.8391ZM13.7637 8.39146H11.8703C10.9155 8.39146 10.171 8.15681 9.637 7.6875C9.11105 7.21819 8.84807 6.64774 8.84807 5.97614C8.84807 5.30455 9.06655 4.78669 9.50349 4.42257C9.94043 4.05036 10.4907 3.86426 11.1542 3.86426C11.6396 3.86426 12.0766 3.98158 12.465 4.21624C12.8615 4.4428 13.177 4.77455 13.4117 5.2115C13.6463 5.64035 13.7637 6.15416 13.7637 6.75293V8.39146ZM15.7542 8.39146V6.75293C15.7542 6.15416 15.8715 5.64035 16.1062 5.2115C16.3408 4.77455 16.6564 4.4428 17.0529 4.21624C17.4494 3.98158 17.8863 3.86426 18.3637 3.86426C19.0353 3.86426 19.5855 4.05036 20.0144 4.42257C20.4513 4.78669 20.6698 5.30455 20.6698 5.97614C20.6698 6.64774 20.4028 7.21819 19.8687 7.6875C19.3428 8.15681 18.6024 8.39146 17.6476 8.39146H15.7542Z" fill="#484848"/>
</svg>
