<svg width="25" height="24" viewBox="0 0 25 24" fill="none" xmlns="http://www.w3.org/2000/svg">
<path d="M4.75 10.5C3.92 10.5 3.25 11.17 3.25 12C3.25 12.83 3.92 13.5 4.75 13.5C5.58 13.5 6.25 12.83 6.25 12C6.25 11.17 5.58 10.5 4.75 10.5ZM4.75 4.5C3.92 4.5 3.25 5.17 3.25 6C3.25 6.83 3.92 7.5 4.75 7.5C5.58 7.5 6.25 6.83 6.25 6C6.25 5.17 5.58 4.5 4.75 4.5ZM4.75 16.5C3.92 16.5 3.25 17.18 3.25 18C3.25 18.82 3.93 19.5 4.75 19.5C5.57 19.5 6.25 18.82 6.25 18C6.25 17.18 5.58 16.5 4.75 16.5ZM8.75 19H20.75C21.3 19 21.75 18.55 21.75 18C21.75 17.45 21.3 17 20.75 17H8.75C8.2 17 7.75 17.45 7.75 18C7.75 18.55 8.2 19 8.75 19ZM8.75 13H20.75C21.3 13 21.75 12.55 21.75 12C21.75 11.45 21.3 11 20.75 11H8.75C8.2 11 7.75 11.45 7.75 12C7.75 12.55 8.2 13 8.75 13ZM7.75 6C7.75 6.55 8.2 7 8.75 7H20.75C21.3 7 21.75 6.55 21.75 6C21.75 5.45 21.3 5 20.75 5H8.75C8.2 5 7.75 5.45 7.75 6Z" fill="#696969"/>
</svg>
