<svg width="24" height="24" viewBox="0 0 24 24" fill="none" xmlns="http://www.w3.org/2000/svg">
<path d="M11.9991 10.5C8.52913 10.5 5.63913 13.04 5.08913 16.36C4.98913 16.96 5.47913 17.5 6.08913 17.5C6.57913 17.5 6.98913 17.14 7.06913 16.65C7.47913 14.29 9.52913 12.5 11.9991 12.5C14.4691 12.5 16.5191 14.29 16.9291 16.65C17.0091 17.14 17.4191 17.5 17.9091 17.5C18.5191 17.5 18.9991 16.96 18.8991 16.36C18.3591 13.04 15.4691 10.5 11.9991 10.5ZM11.9991 6.5C6.29913 6.5 1.60913 10.84 1.04913 16.4C0.999131 16.99 1.45913 17.5 2.05913 17.5C2.56913 17.5 2.99913 17.12 3.04913 16.62C3.48913 12.07 7.33913 8.5 11.9991 8.5C16.6591 8.5 20.5091 12.07 20.9591 16.62C21.0091 17.12 21.4391 17.5 21.9491 17.5C22.5391 17.5 23.0091 16.99 22.9491 16.4C22.3891 10.84 17.6991 6.5 11.9991 6.5Z" fill="#696969"/>
</svg>
