<svg width="382" height="208" viewBox="0 0 382 208" fill="none" xmlns="http://www.w3.org/2000/svg">
<g clip-path="url(#clip0_610_596)">
<rect width="382" height="208" fill="#9BE3C5"/>
<rect width="382" height="208" rx="16" fill="#9BE3C5"/>
<path d="M351.871 17.9204C325.375 12.0708 296.727 5.39013 286.383 36.8055C283.255 46.3052 281.039 60.0764 285.012 69.702C287.291 75.2243 295.813 85.8376 303.212 83.5612C311.267 81.0826 308.42 61.5967 307.857 55.5382C306.329 39.1108 284.186 13.3336 267.345 11.3716C248.084 9.12756 217.232 14.0321 203.38 28.886C186.459 47.0294 193.089 66.8059 209.624 81.7336C236.931 106.386 272.428 130.547 308.314 140.14C317.408 142.572 333.027 145.841 339.306 136.257C344.143 128.874 345.018 118.19 345.474 109.757C346.504 90.7387 344.576 71.7998 341.21 53.1015C336.517 27.0262 330.039 -1.24026 315.472 -23.8094C304.61 -40.6376 289.305 -44.0113 270.239 -45.5881C231.855 -48.7627 189.703 -35.9526 159.822 -10.864C135.667 9.41763 163.058 44.9738 174.9 63.6101C192.935 91.9937 211.777 122.135 237.495 144.328C260.334 164.038 288.82 168.095 318.061 168.468C340.041 168.748 361.908 166.284 380.046 152.781C400.838 137.303 401.054 108.263 399.236 84.7035C396.249 46.0042 385.004 4.71605 364.816 -28.7591C356.094 -43.2237 347.161 -53.578 329.94 -54.7261" stroke="#D5EFFC" stroke-width="100" stroke-linecap="round"/>
<path d="M314.862 207.076C335.005 207.076 351.807 204.344 355.907 181.794C356.549 178.262 361.726 165.2 357.278 162.605C353.134 160.188 346.304 159.705 341.667 160.549C336.788 161.436 340.544 170.928 342.276 172.809C351.191 182.488 359.101 185.145 372.127 185.145C378.702 185.145 387.764 183.048 383.854 173.875C380.173 165.24 371.626 162.409 365.578 156.36" stroke="#43AA8B" stroke-width="100" stroke-linecap="round"/>
<path d="M220.285 218.041C236.063 207.98 245.351 195.021 257.75 181.261C281.579 154.817 308.265 131.591 332.834 105.949C343.428 94.8924 353.32 82.9916 361.923 70.3113C371.323 56.4548 378.158 41.0991 387.509 27.2108C395.746 14.9769 405.062 1.50411 416.293 -8.12256" stroke="#43AA8B" stroke-width="100" stroke-linecap="round"/>
<g filter="url(#filter0_d_610_596)">
<rect x="132" y="45" width="118" height="118" rx="16" fill="white"/>
</g>
<path d="M156.703 141.878C156.703 141.878 147.421 82.1897 164.81 73.8477L208.872 74.3787C208.872 74.3787 213.16 74.1427 212.455 79.0196C211.75 83.8965 210.748 141.878 210.748 141.878H156.703Z" fill="white" stroke="black" stroke-width="0.708" stroke-miterlimit="10"/>
<path d="M211.833 92.7901C204.399 92.0526 196.77 98.873 196.77 98.873C188.31 108.567 185.901 107.568 180.637 107.862C175.373 108.156 157.291 88.4159 157.291 88.4159C157.291 88.4159 156.438 87.6571 156.571 86.5361" fill="white"/>
<path d="M211.833 92.7901C204.399 92.0526 196.77 98.873 196.77 98.873C188.31 108.567 185.901 107.568 180.637 107.862C175.373 108.156 157.291 88.4159 157.291 88.4159C157.291 88.4159 156.438 87.6571 156.571 86.5361" stroke="black" stroke-width="0.708" stroke-miterlimit="10"/>
<path d="M179.731 101.342C179.731 101.342 183.902 100.225 183.491 104.397C183.493 104.397 178.851 105.102 179.731 101.342Z" fill="white" stroke="black" stroke-width="0.708" stroke-miterlimit="10"/>
<path d="M210.748 141.878C210.748 141.878 220.915 134.711 227.789 132.361C227.966 132.184 221.738 116.734 220.387 105.63C220.387 105.217 213.16 85.6558 212.455 79.0171" fill="white"/>
<path d="M210.748 141.878C210.748 141.878 220.915 134.711 227.789 132.361C227.966 132.184 221.738 116.734 220.387 105.63C220.387 105.217 213.16 85.6558 212.455 79.0171" stroke="black" stroke-width="0.708" stroke-miterlimit="10"/>
<path d="M166.464 73.8678C166.464 73.8678 176.676 58.8671 182.228 73.8478C182.228 74.0838 196.115 74.2236 196.115 74.2236C196.115 74.2236 204.412 55.9501 207.288 74.3575L172.525 73.9404C172.525 73.9404 172.525 69.1189 176.832 70.2494C176.756 70.2199 178.228 70.5579 179.038 73.8484" fill="white"/>
<path d="M166.464 73.8678C166.464 73.8678 176.676 58.8671 182.228 73.8478C182.228 74.0838 196.115 74.2236 196.115 74.2236C196.115 74.2236 204.412 55.9501 207.288 74.3575L172.525 73.9404C172.525 73.9404 172.525 69.1189 176.832 70.2494C176.756 70.2199 178.228 70.5579 179.038 73.8484" stroke="black" stroke-width="0.708" stroke-miterlimit="10"/>
<path d="M198.927 74.2571C198.927 74.2571 204.162 65.2082 205.019 74.2571Z" fill="white"/>
<path d="M198.927 74.2571C198.927 74.2571 204.162 65.2082 205.019 74.2571" stroke="black" stroke-width="0.708" stroke-miterlimit="10"/>
</g>
<defs>
<filter id="filter0_d_610_596" x="116" y="29" width="150" height="150" filterUnits="userSpaceOnUse" color-interpolation-filters="sRGB">
<feFlood flood-opacity="0" result="BackgroundImageFix"/>
<feColorMatrix in="SourceAlpha" type="matrix" values="0 0 0 0 0 0 0 0 0 0 0 0 0 0 0 0 0 0 127 0" result="hardAlpha"/>
<feMorphology radius="6" operator="dilate" in="SourceAlpha" result="effect1_dropShadow_610_596"/>
<feOffset/>
<feGaussianBlur stdDeviation="5"/>
<feComposite in2="hardAlpha" operator="out"/>
<feColorMatrix type="matrix" values="0 0 0 0 0 0 0 0 0 0 0 0 0 0 0 0 0 0 0.05 0"/>
<feBlend mode="normal" in2="BackgroundImageFix" result="effect1_dropShadow_610_596"/>
<feBlend mode="normal" in="SourceGraphic" in2="effect1_dropShadow_610_596" result="shape"/>
</filter>
<clipPath id="clip0_610_596">
<rect width="382" height="208" fill="white"/>
</clipPath>
</defs>
</svg>
