<?xml version="1.0" encoding="utf-8"?>
<!-- Generator: Adobe Illustrator 26.3.1, SVG Export Plug-In . SVG Version: 6.00 Build 0)  -->
<svg version="1.1" id="Layer_1" xmlns="http://www.w3.org/2000/svg" xmlns:xlink="http://www.w3.org/1999/xlink" x="0px" y="0px"
	 viewBox="0 0 2000 2000" style="enable-background:new 0 0 2000 2000;" xml:space="preserve">
<style type="text/css">
	.st0{fill:none;}
	.st1{fill:#FFFFFF;stroke:#000000;stroke-width:12;stroke-miterlimit:10;}
</style>
<rect class="st0" width="2000" height="2000"/>
<g>
	<path class="st1" d="M259.2,1818.1c0,0-200.5-1289.2,175.1-1469.4l951.7,11.5c0,0,92.6-5.1,77.4,100.2s-36.9,1357.7-36.9,1357.7
		H259.2z"/>
	<path class="st1" d="M1449.9,757.8c-160.6-15.9-325.4,131.4-325.4,131.4c-182.7,209.4-234.7,187.8-348.4,194.1
		s-504.3-420-504.3-420s-18.4-16.4-15.6-40.6"/>
	<path class="st1" d="M756.6,942.5c0,0,90.1-24.1,81.2,66C837.8,1008.5,737.6,1023.7,756.6,942.5z"/>
	<path class="st1" d="M1426.5,1818.1c0,0,219.6-154.8,368.1-205.6c3.8-3.8-130.7-337.5-159.9-577.4c0-8.9-156.1-431.4-171.3-574.8"
		/>
	<path class="st1" d="M470,349.1c0,0,220.6-324,340.5-0.4c0,5.1,299.9,8.1,299.9,8.1s179.2-394.7,241.3,2.9l-750.9-9
		c0,0,0-104.1,93-79.7c-1.6-0.6,30.2,6.7,47.7,77.7"/>
	<path class="st1" d="M1171.2,357.5c0,0,113.1-195.4,131.6,0"/>
</g>
</svg>
