<svg width="24" height="24" viewBox="0 0 24 24" fill="none" xmlns="http://www.w3.org/2000/svg">
<path d="M4.04883 13.1826L10.6055 13.209C10.7227 13.209 10.7812 13.2676 10.7812 13.3848L10.7988 19.8887C10.7988 20.1582 10.8545 20.3838 10.9658 20.5654C11.0771 20.7471 11.2236 20.8818 11.4053 20.9697C11.5869 21.0576 11.7773 21.0898 11.9766 21.0664C12.1816 21.0488 12.3779 20.9727 12.5654 20.8379C12.7529 20.7031 12.9053 20.5039 13.0225 20.2402L19.667 5.94922C19.8193 5.62109 19.875 5.32812 19.834 5.07031C19.7988 4.80664 19.6934 4.5957 19.5176 4.4375C19.3418 4.2793 19.1191 4.18848 18.8496 4.16504C18.5801 4.1416 18.2871 4.20312 17.9707 4.34961L3.60059 11.0117C3.36621 11.123 3.1875 11.2666 3.06445 11.4424C2.94141 11.6182 2.87109 11.8057 2.85352 12.0049C2.8418 12.2041 2.87695 12.3945 2.95898 12.5762C3.04688 12.752 3.18164 12.8984 3.36328 13.0156C3.54492 13.127 3.77344 13.1826 4.04883 13.1826Z" fill="#484848"/>
</svg>
