<svg width="22" height="21" viewBox="0 0 22 21" fill="none" xmlns="http://www.w3.org/2000/svg">
<path d="M12.7441 9.94238H16.7432C17.2998 9.94238 17.7188 9.80176 18 9.52051C18.2812 9.2334 18.4219 8.7998 18.4219 8.21973V4.29102C18.4219 3.71094 18.2812 3.28027 18 2.99902C17.7188 2.71777 17.2998 2.57715 16.7432 2.57715H12.7441C12.1816 2.57715 11.7598 2.71777 11.4785 2.99902C11.1973 3.28027 11.0566 3.71094 11.0566 4.29102V8.21973C11.0566 8.7998 11.1973 9.2334 11.4785 9.52051C11.7598 9.80176 12.1816 9.94238 12.7441 9.94238ZM3.91992 18.7578H7.92773C8.48438 18.7578 8.90332 18.6172 9.18457 18.3359C9.46582 18.0547 9.60645 17.624 9.60645 17.0439V13.1064C9.60645 12.5322 9.46582 12.1045 9.18457 11.8232C8.90332 11.5361 8.48438 11.3926 7.92773 11.3926H3.91992C3.36328 11.3926 2.94434 11.5361 2.66309 11.8232C2.38184 12.1045 2.24121 12.5322 2.24121 13.1064V17.0439C2.24121 17.624 2.38184 18.0547 2.66309 18.3359C2.94434 18.6172 3.36328 18.7578 3.91992 18.7578ZM3.9375 17.5186C3.78516 17.5186 3.6709 17.4775 3.59473 17.3955C3.51855 17.3193 3.48047 17.2021 3.48047 17.0439V13.1152C3.48047 12.9512 3.51855 12.8311 3.59473 12.7549C3.6709 12.6729 3.78516 12.6318 3.9375 12.6318H7.90137C8.05371 12.6318 8.16797 12.6729 8.24414 12.7549C8.32617 12.8311 8.36719 12.9512 8.36719 13.1152V17.0439C8.36719 17.2021 8.32617 17.3193 8.24414 17.3955C8.16797 17.4775 8.05371 17.5186 7.90137 17.5186H3.9375ZM5.16797 16.0068H6.6709C6.78809 16.0068 6.84668 15.9365 6.84668 15.7959V14.3457C6.84668 14.2168 6.78809 14.1523 6.6709 14.1523H5.16797C5.05078 14.1523 4.99219 14.2168 4.99219 14.3457V15.7959C4.99219 15.9365 5.05078 16.0068 5.16797 16.0068ZM11.6543 18.3359H13.1572C13.2744 18.3359 13.333 18.2686 13.333 18.1338V16.6748C13.333 16.5459 13.2744 16.4814 13.1572 16.4814H11.6543C11.5371 16.4814 11.4785 16.5459 11.4785 16.6748V18.1338C11.4785 18.2686 11.5371 18.3359 11.6543 18.3359ZM3.91992 9.94238H7.92773C8.48438 9.94238 8.90332 9.80176 9.18457 9.52051C9.46582 9.2334 9.60645 8.7998 9.60645 8.21973V4.29102C9.60645 3.71094 9.46582 3.28027 9.18457 2.99902C8.90332 2.71777 8.48438 2.57715 7.92773 2.57715H3.91992C3.36328 2.57715 2.94434 2.71777 2.66309 2.99902C2.38184 3.28027 2.24121 3.71094 2.24121 4.29102V8.21973C2.24121 8.7998 2.38184 9.2334 2.66309 9.52051C2.94434 9.80176 3.36328 9.94238 3.91992 9.94238ZM3.9375 8.70312C3.78516 8.70312 3.6709 8.66211 3.59473 8.58008C3.51855 8.49805 3.48047 8.37793 3.48047 8.21973V4.29102C3.48047 4.13281 3.51855 4.01563 3.59473 3.93945C3.6709 3.85742 3.78516 3.81641 3.9375 3.81641H7.90137C8.05371 3.81641 8.16797 3.85742 8.24414 3.93945C8.32617 4.01563 8.36719 4.13281 8.36719 4.29102V8.21973C8.36719 8.37793 8.32617 8.49805 8.24414 8.58008C8.16797 8.66211 8.05371 8.70312 7.90137 8.70312H3.9375ZM5.16797 7.18262H6.6709C6.78809 7.18262 6.84668 7.11523 6.84668 6.98047V5.52148C6.84668 5.39258 6.78809 5.32812 6.6709 5.32812H5.16797C5.05078 5.32812 4.99219 5.39258 4.99219 5.52148V6.98047C4.99219 7.11523 5.05078 7.18262 5.16797 7.18262ZM11.6543 13.6689H13.1572C13.2744 13.6689 13.333 13.6016 13.333 13.4668V12.0078C13.333 11.8789 13.2744 11.8145 13.1572 11.8145H11.6543C11.5371 11.8145 11.4785 11.8789 11.4785 12.0078V13.4668C11.4785 13.6016 11.5371 13.6689 11.6543 13.6689ZM16.3213 18.3359H17.8242C17.9414 18.3359 18 18.2686 18 18.1338V16.6748C18 16.5459 17.9414 16.4814 17.8242 16.4814H16.3213C16.2041 16.4814 16.1455 16.5459 16.1455 16.6748V18.1338C16.1455 18.2686 16.2041 18.3359 16.3213 18.3359ZM14.0098 16.0068H15.5127C15.6299 16.0068 15.6885 15.9365 15.6885 15.7959V14.3457C15.6885 14.2168 15.6299 14.1523 15.5127 14.1523H14.0098C13.8926 14.1523 13.834 14.2168 13.834 14.3457V15.7959C13.834 15.9365 13.8926 16.0068 14.0098 16.0068ZM16.3213 13.6689H17.8242C17.9414 13.6689 18 13.6016 18 13.4668V12.0078C18 11.8789 17.9414 11.8145 17.8242 11.8145H16.3213C16.2041 11.8145 16.1455 11.8789 16.1455 12.0078V13.4668C16.1455 13.6016 16.2041 13.6689 16.3213 13.6689ZM12.7617 8.70312C12.6035 8.70312 12.4863 8.66211 12.4102 8.58008C12.334 8.49805 12.2959 8.37793 12.2959 8.21973V4.29102C12.2959 4.13281 12.334 4.01563 12.4102 3.93945C12.4863 3.85742 12.6035 3.81641 12.7617 3.81641H16.7256C16.8838 3.81641 16.998 3.85742 17.0684 3.93945C17.1445 4.01563 17.1826 4.13281 17.1826 4.29102V8.21973C17.1826 8.37793 17.1445 8.49805 17.0684 8.58008C16.998 8.66211 16.8838 8.70312 16.7256 8.70312H12.7617ZM14.0361 7.18262H15.5391C15.6621 7.18262 15.7236 7.11523 15.7236 6.98047V5.52148C15.7236 5.39258 15.6621 5.32812 15.5391 5.32812H14.0361C13.9248 5.32812 13.8691 5.39258 13.8691 5.52148V6.98047C13.8691 7.11523 13.9248 7.18262 14.0361 7.18262Z" fill="#484848"/>
</svg>
