<svg width="31" height="30" viewBox="0 0 31 30" fill="none" xmlns="http://www.w3.org/2000/svg">
<path d="M26.0254 11.0239C26.6846 11.0239 27.0142 10.6903 27.0142 10.0229V7.03223C27.0142 5.77897 26.6927 4.83903 26.0498 4.2124C25.415 3.57764 24.4588 3.26025 23.1812 3.26025H20.1904C19.5312 3.26025 19.2017 3.58577 19.2017 4.23682C19.2017 4.5542 19.2871 4.79834 19.458 4.96924C19.6289 5.14014 19.873 5.22559 20.1904 5.22559H23.1445C23.7467 5.22559 24.2147 5.38835 24.5483 5.71387C24.882 6.03125 25.0488 6.50732 25.0488 7.14209V10.0229C25.0488 10.6903 25.3743 11.0239 26.0254 11.0239ZM6.9458 27.1494H9.92432C10.5916 27.1494 10.9253 26.8239 10.9253 26.1729C10.9253 25.8555 10.8398 25.6113 10.6689 25.4404C10.498 25.2695 10.2498 25.1841 9.92432 25.1841H6.97021C6.35986 25.1841 5.89193 25.0213 5.56641 24.6958C5.24089 24.3784 5.07812 23.9023 5.07812 23.2676V20.3867C5.07812 19.7194 4.74854 19.3857 4.08936 19.3857C3.43831 19.3857 3.11279 19.7194 3.11279 20.3867V23.3652C3.11279 24.6266 3.43018 25.5706 4.06494 26.1973C4.70785 26.832 5.66813 27.1494 6.9458 27.1494ZM20.1904 27.1494H23.1812C24.4588 27.1494 25.415 26.832 26.0498 26.1973C26.6927 25.5706 27.0142 24.6266 27.0142 23.3652V20.3867C27.0142 19.7194 26.6846 19.3857 26.0254 19.3857C25.708 19.3857 25.4639 19.4712 25.293 19.6421C25.1302 19.813 25.0488 20.0612 25.0488 20.3867V23.2676C25.0488 23.9023 24.882 24.3784 24.5483 24.6958C24.2147 25.0213 23.7467 25.1841 23.1445 25.1841H20.1904C19.5312 25.1841 19.2017 25.5137 19.2017 26.1729C19.2017 26.8239 19.5312 27.1494 20.1904 27.1494ZM4.08936 11.0239C4.41488 11.0239 4.65902 10.9385 4.82178 10.7676C4.99268 10.5885 5.07812 10.3403 5.07812 10.0229V7.14209C5.07812 6.50732 5.24089 6.03125 5.56641 5.71387C5.89193 5.38835 6.35986 5.22559 6.97021 5.22559H9.92432C10.5916 5.22559 10.9253 4.896 10.9253 4.23682C10.9253 3.58577 10.5916 3.26025 9.92432 3.26025H6.9458C5.66813 3.26025 4.70785 3.57764 4.06494 4.2124C3.43018 4.83903 3.11279 5.77897 3.11279 7.03223V10.0229C3.11279 10.6903 3.43831 11.0239 4.08936 11.0239ZM9.74121 21.0581H13.9893C14.1439 21.0581 14.27 21.0093 14.3677 20.9116C14.4735 20.8058 14.5264 20.6756 14.5264 20.521V16.2729C14.5264 16.1183 14.4735 15.9922 14.3677 15.8945C14.27 15.7887 14.1439 15.7358 13.9893 15.7358H9.74121C9.59473 15.7358 9.46859 15.7887 9.36279 15.8945C9.257 15.9922 9.2041 16.1183 9.2041 16.2729V20.521C9.2041 20.6756 9.257 20.8058 9.36279 20.9116C9.46859 21.0093 9.59473 21.0581 9.74121 21.0581ZM10.2661 19.9961V16.7979H13.4644V19.9961H10.2661ZM11.2061 19.0562H12.5366V17.7256H11.2061V19.0562ZM9.74121 14.6738H13.9893C14.1439 14.6738 14.27 14.625 14.3677 14.5273C14.4735 14.4215 14.5264 14.2954 14.5264 14.1489V9.88867C14.5264 9.74219 14.4735 9.61605 14.3677 9.51025C14.27 9.40446 14.1439 9.35156 13.9893 9.35156H9.74121C9.59473 9.35156 9.46859 9.40446 9.36279 9.51025C9.257 9.61605 9.2041 9.74219 9.2041 9.88867V14.1489C9.2041 14.2954 9.257 14.4215 9.36279 14.5273C9.46859 14.625 9.59473 14.6738 9.74121 14.6738ZM10.2661 13.6118V10.4136H13.4644V13.6118H10.2661ZM11.2061 12.6841H12.5366V11.3413H11.2061V12.6841ZM16.1133 14.6738H20.3735C20.52 14.6738 20.6421 14.625 20.7397 14.5273C20.8455 14.4215 20.8984 14.2954 20.8984 14.1489V9.88867C20.8984 9.74219 20.8455 9.61605 20.7397 9.51025C20.6421 9.40446 20.52 9.35156 20.3735 9.35156H16.1133C15.9668 9.35156 15.8407 9.40446 15.7349 9.51025C15.6291 9.61605 15.5762 9.74219 15.5762 9.88867V14.1489C15.5762 14.2954 15.6291 14.4215 15.7349 14.5273C15.8407 14.625 15.9668 14.6738 16.1133 14.6738ZM16.6382 13.6118V10.4136H19.8364V13.6118H16.6382ZM17.5781 12.6841H18.9087V11.3413H17.5781V12.6841ZM15.7349 20.8994H17.0654V19.5688H15.7349V20.8994ZM19.4092 20.8994H20.752V19.5688H19.4092V20.8994ZM17.5781 19.0562H18.9087V17.7256H17.5781V19.0562ZM15.7349 17.2129H17.0654V15.8823H15.7349V17.2129ZM19.4092 17.2129H20.752V15.8823H19.4092V17.2129Z" fill="#484848"/>
</svg>
