<svg width="19" height="21" viewBox="0 0 19 21" fill="none" xmlns="http://www.w3.org/2000/svg">
<g clip-path="url(#clip0_610_591)">
<path d="M-78.6037 17V4.238H-79.7737C-79.8577 4.718 -80.0137 5.114 -80.2417 5.426C-80.4697 5.738 -80.7517 5.984 -81.0877 6.164C-81.4117 6.344 -81.7777 6.47 -82.1857 6.542C-82.5937 6.602 -83.0137 6.632 -83.4457 6.632V7.856H-80.1337V17H-78.6037ZM-73.5157 15.002V17H-71.5177V15.002H-73.5157ZM-59.68 5.588V17H-57.97V5.588H-53.686V4.148H-63.964V5.588H-59.68ZM-46.272 16.964C-46.536 17.12 -46.902 17.198 -47.37 17.198C-47.766 17.198 -48.084 17.09 -48.324 16.874C-48.552 16.646 -48.666 16.28 -48.666 15.776C-49.086 16.28 -49.578 16.646 -50.142 16.874C-50.694 17.09 -51.294 17.198 -51.942 17.198C-52.362 17.198 -52.764 17.15 -53.148 17.054C-53.52 16.958 -53.844 16.808 -54.12 16.604C-54.396 16.4 -54.618 16.136 -54.786 15.812C-54.942 15.476 -55.02 15.074 -55.02 14.606C-55.02 14.078 -54.93 13.646 -54.75 13.31C-54.57 12.974 -54.336 12.704 -54.048 12.5C-53.748 12.284 -53.412 12.122 -53.04 12.014C-52.656 11.906 -52.266 11.816 -51.87 11.744C-51.45 11.66 -51.054 11.6 -50.682 11.564C-50.298 11.516 -49.962 11.456 -49.674 11.384C-49.386 11.3 -49.158 11.186 -48.99 11.042C-48.822 10.886 -48.738 10.664 -48.738 10.376C-48.738 10.04 -48.804 9.77 -48.936 9.566C-49.056 9.362 -49.218 9.206 -49.422 9.098C-49.614 8.99 -49.836 8.918 -50.088 8.882C-50.328 8.846 -50.568 8.828 -50.808 8.828C-51.456 8.828 -51.996 8.954 -52.428 9.206C-52.86 9.446 -53.094 9.908 -53.13 10.592H-54.66C-54.636 10.016 -54.516 9.53 -54.3 9.134C-54.084 8.738 -53.796 8.42 -53.436 8.18C-53.076 7.928 -52.668 7.748 -52.212 7.64C-51.744 7.532 -51.246 7.478 -50.718 7.478C-50.298 7.478 -49.884 7.508 -49.476 7.568C-49.056 7.628 -48.678 7.754 -48.342 7.946C-48.006 8.126 -47.736 8.384 -47.532 8.72C-47.328 9.056 -47.226 9.494 -47.226 10.034V14.822C-47.226 15.182 -47.208 15.446 -47.172 15.614C-47.124 15.782 -46.98 15.866 -46.74 15.866C-46.608 15.866 -46.452 15.836 -46.272 15.776V16.964ZM-48.756 12.194C-48.948 12.338 -49.2 12.446 -49.512 12.518C-49.824 12.578 -50.154 12.632 -50.502 12.68C-50.838 12.716 -51.18 12.764 -51.528 12.824C-51.876 12.872 -52.188 12.956 -52.464 13.076C-52.74 13.196 -52.968 13.37 -53.148 13.598C-53.316 13.814 -53.4 14.114 -53.4 14.498C-53.4 14.75 -53.352 14.966 -53.256 15.146C-53.148 15.314 -53.016 15.452 -52.86 15.56C-52.692 15.668 -52.5 15.746 -52.284 15.794C-52.068 15.842 -51.84 15.866 -51.6 15.866C-51.096 15.866 -50.664 15.8 -50.304 15.668C-49.944 15.524 -49.65 15.35 -49.422 15.146C-49.194 14.93 -49.026 14.702 -48.918 14.462C-48.81 14.21 -48.756 13.976 -48.756 13.76V12.194ZM-44.794 7.694V20.546H-43.264V15.758H-43.228C-43.06 16.034 -42.856 16.268 -42.616 16.46C-42.364 16.64 -42.1 16.784 -41.824 16.892C-41.548 17 -41.272 17.078 -40.996 17.126C-40.708 17.174 -40.45 17.198 -40.222 17.198C-39.514 17.198 -38.896 17.072 -38.368 16.82C-37.828 16.568 -37.384 16.226 -37.036 15.794C-36.676 15.35 -36.412 14.834 -36.244 14.246C-36.064 13.658 -35.974 13.034 -35.974 12.374C-35.974 11.714 -36.064 11.09 -36.244 10.502C-36.424 9.914 -36.694 9.398 -37.054 8.954C-37.402 8.498 -37.846 8.138 -38.386 7.874C-38.914 7.61 -39.538 7.478 -40.258 7.478C-40.906 7.478 -41.5 7.598 -42.04 7.838C-42.58 8.066 -42.976 8.438 -43.228 8.954H-43.264V7.694H-44.794ZM-37.594 12.266C-37.594 12.722 -37.642 13.166 -37.738 13.598C-37.834 14.03 -37.99 14.414 -38.206 14.75C-38.422 15.086 -38.71 15.356 -39.07 15.56C-39.418 15.764 -39.856 15.866 -40.384 15.866C-40.912 15.866 -41.362 15.77 -41.734 15.578C-42.106 15.374 -42.412 15.11 -42.652 14.786C-42.88 14.462 -43.048 14.09 -43.156 13.67C-43.264 13.238 -43.318 12.794 -43.318 12.338C-43.318 11.906 -43.27 11.48 -43.174 11.06C-43.066 10.64 -42.898 10.268 -42.67 9.944C-42.442 9.608 -42.148 9.338 -41.788 9.134C-41.428 8.93 -40.99 8.828 -40.474 8.828C-39.982 8.828 -39.556 8.924 -39.196 9.116C-38.824 9.308 -38.524 9.566 -38.296 9.89C-38.056 10.214 -37.882 10.586 -37.774 11.006C-37.654 11.414 -37.594 11.834 -37.594 12.266ZM-27.0443 7.694V4.904H-28.5743V7.694H-30.1583V9.044H-28.5743V14.966C-28.5743 15.398 -28.5323 15.746 -28.4483 16.01C-28.3643 16.274 -28.2383 16.478 -28.0703 16.622C-27.8903 16.766 -27.6623 16.868 -27.3863 16.928C-27.0983 16.976 -26.7563 17 -26.3603 17H-25.1903V15.65H-25.8923C-26.1323 15.65 -26.3303 15.644 -26.4863 15.632C-26.6303 15.608 -26.7443 15.566 -26.8283 15.506C-26.9123 15.446 -26.9723 15.362 -27.0083 15.254C-27.0323 15.146 -27.0443 15.002 -27.0443 14.822V9.044H-25.1903V7.694H-27.0443ZM-23.4906 4.148V17H-21.9606V11.744C-21.9606 11.324 -21.9066 10.94 -21.7986 10.592C-21.6786 10.232 -21.5046 9.92 -21.2766 9.656C-21.0486 9.392 -20.7666 9.188 -20.4306 9.044C-20.0826 8.9 -19.6746 8.828 -19.2066 8.828C-18.6186 8.828 -18.1566 8.996 -17.8206 9.332C-17.4846 9.668 -17.3166 10.124 -17.3166 10.7V17H-15.7866V10.88C-15.7866 10.376 -15.8406 9.92 -15.9486 9.512C-16.0446 9.092 -16.2186 8.732 -16.4706 8.432C-16.7226 8.132 -17.0526 7.898 -17.4606 7.73C-17.8686 7.562 -18.3786 7.478 -18.9906 7.478C-19.2666 7.478 -19.5546 7.508 -19.8546 7.568C-20.1426 7.628 -20.4246 7.724 -20.7006 7.856C-20.9646 7.976 -21.2046 8.138 -21.4206 8.342C-21.6366 8.534 -21.8046 8.774 -21.9246 9.062H-21.9606V4.148H-23.4906ZM-7.02662 11.456H-12.3726C-12.3486 11.096 -12.2706 10.76 -12.1386 10.448C-12.0066 10.124 -11.8266 9.842 -11.5986 9.602C-11.3706 9.362 -11.1006 9.176 -10.7886 9.044C-10.4646 8.9 -10.1046 8.828 -9.70862 8.828C-9.32462 8.828 -8.97662 8.9 -8.66462 9.044C-8.34062 9.176 -8.06462 9.362 -7.83662 9.602C-7.59662 9.83 -7.41062 10.106 -7.27862 10.43C-7.13462 10.754 -7.05062 11.096 -7.02662 11.456ZM-5.55063 14.048H-7.06262C-7.19462 14.66 -7.47062 15.116 -7.89062 15.416C-8.29862 15.716 -8.82662 15.866 -9.47462 15.866C-9.97862 15.866 -10.4166 15.782 -10.7886 15.614C-11.1606 15.446 -11.4666 15.224 -11.7066 14.948C-11.9466 14.66 -12.1206 14.336 -12.2286 13.976C-12.3366 13.604 -12.3846 13.214 -12.3726 12.806H-5.40662C-5.38262 12.242 -5.43662 11.648 -5.56862 11.024C-5.68862 10.4 -5.91662 9.824 -6.25262 9.296C-6.57662 8.768 -7.01462 8.336 -7.56662 8C-8.10662 7.652 -8.79062 7.478 -9.61862 7.478C-10.2546 7.478 -10.8426 7.598 -11.3826 7.838C-11.9106 8.078 -12.3726 8.414 -12.7686 8.846C-13.1526 9.278 -13.4526 9.788 -13.6686 10.376C-13.8846 10.964 -13.9926 11.612 -13.9926 12.32C-13.9686 13.028 -13.8666 13.682 -13.6866 14.282C-13.4946 14.882 -13.2126 15.398 -12.8406 15.83C-12.4686 16.262 -12.0126 16.598 -11.4726 16.838C-10.9206 17.078 -10.2726 17.198 -9.52862 17.198C-8.47262 17.198 -7.59662 16.934 -6.90062 16.406C-6.20462 15.878 -5.75462 15.092 -5.55063 14.048ZM24.2177 4.148V17H25.7477V15.758H25.7837C25.9517 16.034 26.1557 16.268 26.3957 16.46C26.6477 16.64 26.9117 16.784 27.1877 16.892C27.4637 17 27.7397 17.078 28.0157 17.126C28.3037 17.174 28.5617 17.198 28.7897 17.198C29.4977 17.198 30.1157 17.072 30.6437 16.82C31.1837 16.568 31.6277 16.226 31.9757 15.794C32.3357 15.35 32.5997 14.834 32.7677 14.246C32.9477 13.658 33.0377 13.034 33.0377 12.374C33.0377 11.714 32.9477 11.09 32.7677 10.502C32.5877 9.914 32.3177 9.398 31.9577 8.954C31.6097 8.498 31.1657 8.138 30.6257 7.874C30.0977 7.61 29.4737 7.478 28.7537 7.478C28.1057 7.478 27.5117 7.598 26.9717 7.838C26.4317 8.066 26.0357 8.438 25.7837 8.954H25.7477V4.148H24.2177ZM31.4177 12.266C31.4177 12.722 31.3697 13.166 31.2737 13.598C31.1777 14.03 31.0217 14.414 30.8057 14.75C30.5897 15.086 30.3017 15.356 29.9417 15.56C29.5937 15.764 29.1557 15.866 28.6277 15.866C28.0997 15.866 27.6497 15.77 27.2777 15.578C26.9057 15.374 26.5997 15.11 26.3597 14.786C26.1317 14.462 25.9637 14.09 25.8557 13.67C25.7477 13.238 25.6937 12.794 25.6937 12.338C25.6937 11.906 25.7417 11.48 25.8377 11.06C25.9457 10.64 26.1137 10.268 26.3417 9.944C26.5697 9.608 26.8637 9.338 27.2237 9.134C27.5837 8.93 28.0217 8.828 28.5377 8.828C29.0297 8.828 29.4557 8.924 29.8157 9.116C30.1877 9.308 30.4877 9.566 30.7157 9.89C30.9557 10.214 31.1297 10.586 31.2377 11.006C31.3577 11.414 31.4177 11.834 31.4177 12.266ZM42.5376 17V7.694H41.0076V12.95C41.0076 13.37 40.9476 13.76 40.8276 14.12C40.7196 14.468 40.5516 14.774 40.3236 15.038C40.0956 15.302 39.8076 15.506 39.4596 15.65C39.1236 15.794 38.7216 15.866 38.2536 15.866C37.6656 15.866 37.2036 15.698 36.8676 15.362C36.5316 15.026 36.3636 14.57 36.3636 13.994V7.694H34.8336V13.814C34.8336 14.318 34.8816 14.78 34.9776 15.2C35.0856 15.608 35.2656 15.962 35.5176 16.262C35.7696 16.562 36.0996 16.796 36.5076 16.964C36.9156 17.12 37.4256 17.198 38.0376 17.198C38.7216 17.198 39.3156 17.066 39.8196 16.802C40.3236 16.526 40.7376 16.1 41.0616 15.524H41.0976V17H42.5376ZM46.9596 7.694V4.904H45.4296V7.694H43.8456V9.044H45.4296V14.966C45.4296 15.398 45.4716 15.746 45.5556 16.01C45.6396 16.274 45.7656 16.478 45.9336 16.622C46.1136 16.766 46.3416 16.868 46.6176 16.928C46.9056 16.976 47.2476 17 47.6436 17H48.8136V15.65H48.1116C47.8716 15.65 47.6736 15.644 47.5176 15.632C47.3736 15.608 47.2596 15.566 47.1756 15.506C47.0916 15.446 47.0316 15.362 46.9956 15.254C46.9716 15.146 46.9596 15.002 46.9596 14.822V9.044H48.8136V7.694H46.9596ZM52.6373 7.694V4.904H51.1073V7.694H49.5233V9.044H51.1073V14.966C51.1073 15.398 51.1493 15.746 51.2333 16.01C51.3173 16.274 51.4433 16.478 51.6113 16.622C51.7913 16.766 52.0193 16.868 52.2953 16.928C52.5833 16.976 52.9253 17 53.3213 17H54.4913V15.65H53.7893C53.5493 15.65 53.3513 15.644 53.1953 15.632C53.0513 15.608 52.9373 15.566 52.8533 15.506C52.7693 15.446 52.7093 15.362 52.6733 15.254C52.6493 15.146 52.6373 15.002 52.6373 14.822V9.044H54.4913V7.694H52.6373ZM57.3071 12.356C57.3071 11.792 57.3791 11.294 57.5231 10.862C57.6791 10.418 57.8891 10.046 58.1531 9.746C58.4171 9.446 58.7231 9.218 59.0711 9.062C59.4311 8.906 59.8091 8.828 60.2051 8.828C60.6011 8.828 60.9731 8.906 61.3211 9.062C61.6811 9.218 61.9931 9.446 62.2571 9.746C62.5211 10.046 62.7251 10.418 62.8691 10.862C63.0251 11.294 63.1031 11.792 63.1031 12.356C63.1031 12.92 63.0251 13.424 62.8691 13.868C62.7251 14.3 62.5211 14.666 62.2571 14.966C61.9931 15.254 61.6811 15.476 61.3211 15.632C60.9731 15.788 60.6011 15.866 60.2051 15.866C59.8091 15.866 59.4311 15.788 59.0711 15.632C58.7231 15.476 58.4171 15.254 58.1531 14.966C57.8891 14.666 57.6791 14.3 57.5231 13.868C57.3791 13.424 57.3071 12.92 57.3071 12.356ZM55.6871 12.356C55.6871 13.04 55.7831 13.676 55.9751 14.264C56.1671 14.852 56.4551 15.368 56.8391 15.812C57.2231 16.244 57.6971 16.586 58.2611 16.838C58.8251 17.078 59.4731 17.198 60.2051 17.198C60.9491 17.198 61.5971 17.078 62.1491 16.838C62.7131 16.586 63.1871 16.244 63.5711 15.812C63.9551 15.368 64.2431 14.852 64.4351 14.264C64.6271 13.676 64.7231 13.04 64.7231 12.356C64.7231 11.672 64.6271 11.036 64.4351 10.448C64.2431 9.848 63.9551 9.332 63.5711 8.9C63.1871 8.456 62.7131 8.108 62.1491 7.856C61.5971 7.604 60.9491 7.478 60.2051 7.478C59.4731 7.478 58.8251 7.604 58.2611 7.856C57.6971 8.108 57.2231 8.456 56.8391 8.9C56.4551 9.332 56.1671 9.848 55.9751 10.448C55.7831 11.036 55.6871 11.672 55.6871 12.356ZM66.527 7.694V17H68.057V11.744C68.057 11.324 68.111 10.94 68.219 10.592C68.339 10.232 68.513 9.92 68.741 9.656C68.969 9.392 69.251 9.188 69.587 9.044C69.935 8.9 70.343 8.828 70.811 8.828C71.399 8.828 71.861 8.996 72.197 9.332C72.533 9.668 72.701 10.124 72.701 10.7V17H74.231V10.88C74.231 10.376 74.177 9.92 74.069 9.512C73.973 9.092 73.799 8.732 73.547 8.432C73.295 8.132 72.965 7.898 72.557 7.73C72.149 7.562 71.639 7.478 71.027 7.478C69.647 7.478 68.639 8.042 68.003 9.17H67.967V7.694H66.527Z" fill="black"/>
<path d="M4.7041 19.7158H14.2402C15.0898 19.7158 15.7256 19.5049 16.1475 19.083C16.5752 18.6611 16.7891 18.0342 16.7891 17.2021V8.82617C16.7891 7.99414 16.5752 7.36719 16.1475 6.94531C15.7256 6.52344 15.0898 6.3125 14.2402 6.3125H11.9111V7.52539H14.2227C14.6562 7.52539 14.9902 7.63965 15.2246 7.86816C15.459 8.09668 15.5762 8.43945 15.5762 8.89648V17.1406C15.5762 17.5859 15.459 17.9229 15.2246 18.1514C14.9902 18.3799 14.6562 18.4941 14.2227 18.4941H4.72168C4.28809 18.4941 3.9541 18.3799 3.71973 18.1514C3.49121 17.9229 3.37695 17.5859 3.37695 17.1406V8.89648C3.37695 8.43945 3.49121 8.09668 3.71973 7.86816C3.9541 7.63965 4.28809 7.52539 4.72168 7.52539H7.04199V6.3125H4.7041C3.85449 6.3125 3.21582 6.52344 2.78809 6.94531C2.36621 7.36133 2.15527 7.98828 2.15527 8.82617V17.2021C2.15527 18.0342 2.36621 18.6611 2.78809 19.083C3.21582 19.5049 3.85449 19.7158 4.7041 19.7158ZM9.47656 13.2559C9.64062 13.2559 9.78125 13.1973 9.89844 13.0801C10.0156 12.9629 10.0742 12.8252 10.0742 12.667V3.96582L10.0215 2.74414L10.6631 3.40332L11.9727 4.7832C12.084 4.90625 12.2246 4.96777 12.3945 4.96777C12.5469 4.96777 12.6758 4.91797 12.7812 4.81836C12.8867 4.71875 12.9395 4.59277 12.9395 4.44043C12.9395 4.29395 12.8809 4.16211 12.7637 4.04492L9.91602 1.27637C9.83398 1.2002 9.75781 1.14746 9.6875 1.11816C9.61719 1.08887 9.54688 1.07422 9.47656 1.07422C9.40039 1.07422 9.32715 1.08887 9.25684 1.11816C9.18652 1.14746 9.11328 1.2002 9.03711 1.27637L6.18066 4.04492C6.06348 4.16211 6.00488 4.29395 6.00488 4.44043C6.00488 4.59277 6.05469 4.71875 6.1543 4.81836C6.25977 4.91797 6.3916 4.96777 6.5498 4.96777C6.71973 4.96777 6.85742 4.90625 6.96289 4.7832L8.29004 3.40332L8.92285 2.73535L8.87891 3.96582V12.667C8.87891 12.8252 8.9375 12.9629 9.05469 13.0801C9.17188 13.1973 9.3125 13.2559 9.47656 13.2559Z" fill="#2874E8"/>
</g>
<defs>
<clipPath id="clip0_610_591">
<rect width="19" height="21" fill="white"/>
</clipPath>
</defs>
</svg>
